<?xml version="1.0" encoding="UTF-8"?>
<svg id="Layer_1" data-name="Layer 1" xmlns="http://www.w3.org/2000/svg" viewBox="0 0 1080 540.4">
  <defs>
    <style>
      .tw-1{fill:#604247}.tw-2{fill:#374a62}.tw-3{fill:#425a73}.tw-4{fill:#cf9134}.tw-5{fill:#8eb9e3}.tw-6{fill:#705153}.tw-7{fill:#c2583b}.tw-8{fill:#53353c}.tw-9{fill:#f6b53c}.tw-10{fill:#fff}.tw-11{fill:#aa6d78}.tw-12{fill:#e46943}.tw-13{fill:#c5838a}.tw-14{fill:#c77d73}.tw-15{fill:#7b99cf}.tw-16{fill:#a74733}.tw-17{fill:#6f80b3}.tw-18{fill:#eba1a1}.tw-19{fill:#102637}.tw-20{fill:#081c2e}
    </style>
  </defs>
  <path class="tw-12" d="M1080,539.99v.4H0v-.4C0,241.77,241.77,0,540,0s540,241.77,540,539.99"/>
  <path class="tw-5" d="M749.39,215.71c0,72.73-58.96,131.68-131.68,131.68s-131.69-58.96-131.69-131.68,58.96-131.68,131.69-131.68,131.68,58.95,131.68,131.68"/>
  <rect class="tw-19" x="358.36" y="121.97" width="183.62" height="183.62" transform="translate(-25.06 363.81) rotate(-42.92)"/>
  <polygon class="tw-3" points="355.94 247.26 348.38 239.14 363.04 225.52 361.96 241.64 355.94 247.26"/>
  <polygon class="tw-3" points="375.96 229.7 375.67 213.77 482.84 114.09 508.66 141.86 515.77 149.5 431.59 227.78 419.59 188.98 419.59 188.98 419.59 188.98 375.96 229.7"/>
  <path class="tw-7" d="M617.24,347.39c-3.07,0-6.11-.11-9.12-.32l.02-.02c3.08.22,6.19.34,9.32.34h-.22"/>
  <path class="tw-10" d="M508.67,141.86c-14.29,21.06-22.64,46.48-22.64,73.84s7.59,50.41,20.68,70.87l73.22-68.1-71.26-76.62Z"/>
  <polygon class="tw-18" points="353.69 301.33 431.79 228.42 419.59 188.98 375.96 229.7 375.5 204.84 363.69 215.87 361.97 241.64 331.4 270.17 353.69 301.33"/>
  <polygon class="tw-13" points="374.09 269.37 354.66 248.47 355.94 247.27 361.97 241.64 363.04 225.51 363.69 215.87 375.49 204.85 375.96 229.7 375.96 229.7 375.96 229.7 419.59 188.98 428.61 218.15 374.09 269.37"/>
  <polygon class="tw-18" points="152.64 422.31 196.68 401.76 197.27 271.41 152.74 285.88 152.64 422.31"/>
  <path class="tw-19" d="M202.91,283.5l-45.09,11.29,8.06,32.2-18.24,4.57-12.01-47.96s-2.56-12.18,14.12-16.35c12.98-3.25,28.67,3.83,28.67,3.83,0,0-.84-6.08,7.68-8.21,11.21-2.81,13.59,7.81,13.59,7.81l3.21,12.83Z"/>
  <path class="tw-18" d="M161.17,329.27c1.9,6.32-1.69,12.99-8.01,14.89-6.32,1.9-12.99-1.69-14.89-8.01-1.9-6.32,1.69-12.99,8.01-14.89,6.32-1.9,12.99,1.69,14.89,8.01"/>
  <polygon class="tw-6" points="750.32 301.33 671.46 228.26 683.59 188.52 727.64 229.34 728.02 204.32 739.94 215.37 741.77 241.3 772.63 269.89 750.32 301.33"/>
  <polygon class="tw-1" points="729.17 270.19 683.12 225.75 691.81 197.95 727.64 229.34 728.02 204.32 739.94 215.37 741.77 241.3 745.67 244.91 746.06 245.28 748.92 247.93 748.5 249.41 729.17 270.19"/>
  <path class="tw-6" d="M951.36,426.07l-36.59-31.5v-.17l-.2-26.55-13.46-12.19-.73-21.55-.94-.28c-4.51-1.33-6.52-6.58-4.07-10.59l14.96-27.5,1.71-3.04c2.48-4.4,7.67-6.51,12.52-5.08l26.7,7.89v12.32s.1,118.24.1,118.24Z"/>
  <path class="tw-19" d="M951.36,426.07l-.1-130.56,7.83,2.31c10.26,3.03,17.44,12.3,17.81,23l2.61,90.63c.39,11.4-10.5,19.83-21.44,16.6l-6.72-1.98Z"/>
  <path class="tw-6" d="M941.15,326.37c-1.55,5.25,1.45,10.76,6.7,12.31,5.25,1.55,10.76-1.45,12.31-6.69,1.55-5.25-1.45-10.76-6.7-12.31-5.25-1.55-10.76,1.45-12.31,6.7"/>
  <polygon class="tw-18" points="951.32 423.01 950.65 539.64 904.95 539.64 904.62 538.46 858.58 538.46 858.58 423.01 712.99 287.6 755.99 241.35 951.31 423 951.3 423.01 951.32 423.01"/>
  <polygon class="tw-9" points="391.04 287.6 245.45 423.01 245.45 538.46 199.42 538.46 199.08 539.64 152.72 539.64 152.72 423.01 152.73 423.01 152.72 423 348.03 241.35 391.04 287.6"/>
  <polygon class="tw-13" points="950.65 539.64 904.95 539.64 904.62 538.46 887.24 538.46 883.92 418.53 727.49 272 729.17 270.19 748.5 249.41 749.43 248.4 752.27 245.35 755.99 241.35 914.73 388.98 951.31 423 951.3 423.01 951.31 423.01 950.65 539.64"/>
  <polygon class="tw-4" points="199.08 539.64 152.72 539.64 152.72 423.01 152.73 423.01 152.72 423 346.38 242.88 348.03 241.35 354.65 248.46 354.65 248.47 374.09 269.37 374.09 269.37 212.34 421.56 212.34 538.46 199.41 538.46 199.08 539.64"/>
</svg>
