<?xml version="1.0" encoding="UTF-8"?>
<svg id="Layer_1" data-name="Layer 1" xmlns="http://www.w3.org/2000/svg" viewBox="0 0 1080 930">
  <defs>
    <style>
      .sh-1{fill:#c18432}.sh-2{fill:#bd8131}.sh-3{fill:#43063c}.sh-4{fill:#51323a}.sh-5{fill:#6874a5}.sh-6{fill:#340637}.sh-7{fill:#cf9134}.sh-8{fill:#061528}.sh-9{fill:#a24431}.sh-10{fill:#d4c6d0}.sh-11{fill:#8eb9e3}.sh-12{fill:#705153}.sh-13{fill:#7489bf}.sh-14{fill:#e0a239}.sh-15{fill:#8e7438}.sh-16{fill:#8b5722}.sh-17{fill:#c2583b}.sh-18{fill:#360030}.sh-19{fill:#490a41}.sh-20{fill:#f6b53c}.sh-21{fill:#a36b2a}.sh-22{fill:#8b3528}.sh-23{fill:#fff}.sh-24{fill:#4f4832}.sh-25{fill:#595135}.sh-26{fill:#2b002d}.sh-27{fill:#500f47}.sh-28{fill:#adb4b9}.sh-29{fill:#e46943}.sh-30{fill:#3d0136}.sh-31{fill:#c5838a}.sh-32{fill:#b097ab}.sh-33{fill:#b2772e}.sh-34{fill:#390d3b}.sh-35{fill:#7c6233}.sh-36{fill:#3f1141}.sh-37{fill:#7b99cf}.sh-38{fill:#6f80b3}.sh-39{fill:#eba1a1}.sh-40{fill:#102637}.sh-41{fill:#684a4d}.sh-42{fill:#081c2e}
    </style>
  </defs>
  <path class="sh-27" d="M910.59,367.97c0,203.22-164.75,367.97-367.97,367.97s-367.97-164.75-367.97-367.97S339.4,0,542.62,0s367.97,164.75,367.97,367.97"/>
  <path class="sh-29" d="M914.59,356.86l-75.1,196.38h-212.44v-59.95h90.97l54.45-132.55c8.73-21.24,29.42-35.12,52.39-35.12h61.91c6.24,0,12.16,1.04,17.63,2.94,9.46,5.34,14.48,17.12,10.2,28.31"/>
  <rect class="sh-28" x="706" y="553" width="168" height="25"/>
  <polygon class="sh-11" points="876.55 577.45 976.07 834.44 830.82 834.44 793.06 733.86 777.24 733.86 738.48 834.44 616.43 834.44 715.37 577.45 876.55 577.45"/>
  <path class="sh-17" d="M839.49,553.23h-83.72l83.85-227.63h.7s43.41,0,43.41,0h3.03c6.25,0,12.17,1.05,17.64,2.95,7.13,4.03,11.73,11.72,11.74,20.04,0,2.72-.49,5.51-1.55,8.26l-14.2,37.12-3.7,3.27,1.32,2.92-58.54,153.06Z"/>
  <path class="sh-12" d="M932.71,198.58l-48.98,127.02h-54.12l19.56-50.78h-9.02c-10.03,0-16.9-10.11-13.21-19.43l6.44-16.29h-12.12c-5.3,0-8.28-6.09-5.03-10.28l43.17-55.47h56.02c13.02,0,21.99,13.07,17.3,25.23"/>
  <path class="sh-40" d="M915.41,173.35h-56c2.57,31.68,28.71,56.69,60.87,57.46l12.43-32.23c4.7-12.16-4.28-25.23-17.3-25.23"/>
  <polygon class="sh-39" points="368.56 544.18 477.8 544.18 499.28 499.84 428.05 499.84 447.89 477.77 428.61 477.77 406.13 498.86 356.23 498.86 368.56 544.18"/>
  <polygon class="sh-39" points="219.77 170.11 146.27 363.99 215.16 363.99 288.66 170.11 219.77 170.11"/>
  <path class="sh-20" d="M104.88,355.02l-38.4,100.18c-18.12,47.27,16.78,98.03,67.41,98.03l90.96-237.3h-63.11c-25.22,0-47.83,15.55-56.86,39.1"/>
  <path class="sh-20" d="M198.75,315.93L61.63,673.66h234.2v-296.84c0-33.63-27.26-60.89-60.89-60.89h-36.19Z"/>
  <polygon class="sh-40" points="295.83 673.66 295.83 834.44 178.73 834.44 168.46 765.12 161.2 765.12 134.63 834.44 0 834.44 61.63 673.66 295.83 673.66"/>
  <path class="sh-20" d="M288.66,170.11h-58.59v52.38h-29.68v-68.91s-1.05-19.62,21.55-19.62c21.13,0,21.38,17.05,21.38,17.05,0,0,3.44-13.31,21.68-13.31s21.48,19.27,21.48,19.27l2.18,13.14Z"/>
  <path class="sh-39" d="M218.1,216.21c0,9.95-8.07,18.02-18.02,18.02s-18.02-8.07-18.02-18.02,8.07-18.02,18.02-18.02,18.02,8.07,18.02,18.02"/>
  <rect class="sh-20" x="133.88" y="490.98" width="250.54" height="62.25"/>
  <path class="sh-37" d="M877.71,580.44l-1.16-2.99,1.16,2.99Z"/>
  <polygon class="sh-37" points="976.08 834.44 830.82 834.44 793.44 734.86 799.73 734.86 799.73 733.83 766.67 733.83 766.67 734.34 723.54 834.43 738.47 834.44 654.6 834.44 732.74 615.95 891.69 616.53 888.6 608.58 976.08 834.44"/>
  <polygon class="sh-5" points="891.69 616.54 732.74 615.95 735.38 608.58 888.61 608.58 891.69 616.54"/>
  <polygon class="sh-13" points="732.74 615.95 700.59 615.84 703.39 608.58 888.61 608.58 735.38 608.58 732.74 615.95"/>
  <polygon class="sh-29" points="937.16 361.43 1064.55 643.67 1008.27 643.67 896.7 397.25 937.16 361.43"/>
  <polygon class="sh-17" points="1064.55 643.67 1024.19 643.67 923.49 428.47 918.4 445.18 898.02 400.17 896.7 397.25 937.16 361.43 1064.55 643.67"/>
  <polygon class="sh-4" points="1052.46 733.24 1027.34 676.83 1016.86 700.33 1010.06 685.06 1018.82 659.82 1011.63 643.67 1024.19 643.67 1059.54 724.84 1052.46 733.24"/>
  <polygon class="sh-12" points="1041.47 614.08 1080 700.59 1052.46 733.24 1027.34 676.83 1016.86 700.33 1010.06 685.06 1018.83 659.82 1001.22 620.3 1041.47 614.08"/>
  <polygon class="sh-12" points="179.69 778.51 130.8 888.27 165.74 929.7 197.61 858.13 210.91 887.94 219.54 868.57 208.41 836.54 230.74 786.41 179.69 778.51"/>
</svg>
