<?xml version="1.0" encoding="UTF-8"?>
<svg id="Layer_1" data-name="Layer 1" xmlns="http://www.w3.org/2000/svg" viewBox="0 0 1080 540.4">
  <defs>
    <style>
      .rw-1{fill:#7ec9a8}.rw-2{fill:#43063c}.rw-3{fill:#805c7d}.rw-4{fill:#6f4b6c}.rw-5{fill:#cf9134}.rw-6{fill:#ebf5f1}.rw-7{fill:#8eb9e3}.rw-8{fill:#c2583b}.rw-9{fill:#f6b53c}.rw-10{fill:#5d9581}.rw-11{fill:#616897}.rw-12{fill:#fff}.rw-13{fill:#aa6d78}.rw-14{fill:#67ba99}.rw-15{fill:#500f47}.rw-16{fill:#e46943}.rw-17{fill:#545783}.rw-18{fill:#c5838a}.rw-19{fill:#00aa61}.rw-20{fill:#40b76f}.rw-21{fill:#7b99cf}.rw-22{fill:#c7c3ca}.rw-23{fill:#6f80b3}.rw-24{fill:#eba1a1}.rw-25{fill:#102637}.rw-26{fill:#081c2e}
    </style>
  </defs>
  <path class="rw-16" d="M1080,540v.4H0v-.4C0,241.77,241.77,0,540,0s540,241.77,540,540"/>
  <path class="rw-3" d="M783.48,268.12c0,33.82-13.71,64.43-35.87,86.6-22.17,22.16-52.79,35.87-86.6,35.87h-254.79c-33.82,0-64.44-13.71-86.61-35.87-22.16-22.17-35.87-52.78-35.87-86.6s13.71-64.42,35.87-86.59c22.17-22.16,52.79-35.87,86.61-35.87h254.79c33.82,0,64.43,13.71,86.6,35.87,22.16,22.17,35.87,52.78,35.87,86.59"/>
  <path class="rw-15" d="M840.03,268.57c0,41.61-16.87,79.29-44.14,106.57-27.28,27.28-64.96,44.14-106.57,44.14h-313.56c-41.62,0-79.29-16.86-106.57-44.14-27.28-27.28-44.14-64.95-44.14-106.57h57.66c0,51.39,41.65,93.05,93.05,93.06h313.56c51.39,0,93.05-41.67,93.05-93.06h57.66Z"/>
  <path class="rw-4" d="M388.47,360.17c-13.9-4.97-21.22-21.72-13.45-35.8l62.47-113.05c10.92-19.76,31.71-32.03,54.29-32.03h13.95v8.77h-1.15c-19.83,0-38.09,10.77-47.68,28.13l-53.13,96.16h-.02l-1.16,2.12-.56,1.01c-.12.21-.23.42-.33.63l-16.53,30.33c-2.79,5.11-.95,11.02,3.3,13.74"/>
  <rect class="rw-25" x="505.73" y="178.21" width="60.81" height="14.19"/>
  <rect class="rw-24" x="521.45" y="156.47" width="32.43" height="37.27"/>
  <rect class="rw-8" x="521.45" y="141.39" width="32.43" height="4.27"/>
  <polygon class="rw-4" points="553.88 178.21 553.88 178.21 553.88 156.47 521.45 156.47 521.45 145.66 553.88 145.66 553.88 178.21"/>
  <polygon class="rw-18" points="553.88 183.05 521.45 171.61 521.45 156.47 553.88 156.47 553.88 178.21 553.88 183.05"/>
  <polygon class="rw-20" points="565.9 508.34 604.37 508.34 611.75 538.99 558.53 538.99 565.9 508.34"/>
  <path class="rw-24" d="M570.13,110.39v30.25c0,1.21-.07,2.39-.2,3.57-1.78,16.25-15.55,28.89-32.27,28.89s-30.49-12.64-32.26-28.89c-.13-1.18-.2-2.36-.2-3.57v-30.25c0-12.09,9.81-21.9,21.9-21.9h21.12c12.09,0,21.9,9.81,21.9,21.9"/>
  <path class="rw-9" d="M536.4,188.05h-31.82c-19.83,0-38.09,10.77-47.68,28.13l-54.87,99.29c-8.12,14.7,2.51,32.72,19.3,32.72h115.07v-160.14Z"/>
  <path class="rw-9" d="M536.4,188.05h31.82c19.83,0,38.09,10.77,47.68,28.13l54.87,99.29c8.12,14.7-2.51,32.72-19.3,32.72h-115.07v-160.14Z"/>
  <path class="rw-1" d="M606.93,538.99c0-12.39-10.05-22.44-22.44-22.44s-22.44,10.05-22.44,22.44h44.88Z"/>
  <rect class="rw-24" x="569.82" y="477.68" width="30.64" height="30.66"/>
  <path class="rw-25" d="M536.4,88.49h-9.3c-12.09,0-21.9,9.81-21.9,21.9v10.53c17.35-.66,31.21-14.92,31.21-32.43"/>
  <path class="rw-25" d="M548.22,88.49h-11.68c1.46,16.57,15.37,29.57,32.33,29.57.42,0,.84-.02,1.26-.03v-7.64c0-12.09-9.81-21.9-21.9-21.9"/>
  <path class="rw-25" d="M571.97,59.78c0,18.94-15.36,34.3-34.3,34.3s-34.3-15.36-34.3-34.3,15.36-34.3,34.3-34.3,34.3,15.36,34.3,34.3"/>
  <rect class="rw-24" x="627.78" y="328.96" width="47.13" height="32.66"/>
  <path class="rw-20" d="M648.02,327.27c19.73,16.14,11.3,36.8,11.3,36.8l21.85,26.53c16.43,19.26,30.99,14.88,30.99,14.88l-46.72-82.85-17.43,4.64Z"/>
  <polygon class="rw-6" points="712.17 405.48 665.45 322.62 674.01 320.34 720.96 403.13 712.17 405.48"/>
  <polyline class="rw-15" points="305.74 385.12 305.74 538.99 310.03 538.99 310.03 385.12"/>
  <polyline class="rw-15" points="763.05 396.84 763.05 538.99 767.34 538.99 767.34 396.84"/>
  <rect class="rw-7" x="558.53" y="361.62" width="55.54" height="123.19"/>
  <path class="rw-7" d="M403.75,312.35l-18.58,34.08c-3.91,7.17,1.28,15.91,9.44,15.2h235.64v-49.28h-226.51Z"/>
  <path class="rw-16" d="M595.08,311.63h-117.34v-62.5c0-3.46,2.8-6.26,6.26-6.26h104.82c3.46,0,6.26,2.8,6.26,6.26v62.5Z"/>
  <path class="rw-1" d="M712.17,405.48l-14.43-25.6-16.56,10.71s11.46,17.05,30.99,14.88"/>
  <path class="rw-24" d="M536.4,188.05v24.78s-27.39.59-27.39-24.78h27.39Z"/>
  <path class="rw-24" d="M536.4,188.05v24.78s27.39.59,27.39-24.78h-27.39Z"/>
  <polygon class="rw-9" points="522.45 219.87 493.49 190.9 505.73 178.66 534.7 207.62 529.03 213.29 522.45 219.87"/>
  <rect class="rw-9" x="538.24" y="190.61" width="40.96" height="17.31" transform="translate(22.74 453.43) rotate(-45)"/>
  <path class="rw-12" d="M542.7,212.2l1.04,30.67h-13.63v-30.67s2.65.71,6.71.55c4.01,0,5.88-.55,5.88-.55"/>
  <polygon class="rw-21" points="614.07 484.81 558.53 484.81 558.53 375.01 614.07 367.51 614.07 419.28 614.07 484.81"/>
  <polygon class="rw-11" points="558.53 375.01 558.53 361.63 614.07 361.63 614.07 367.51 558.53 375.01"/>
  <path class="rw-19" d="M611.75,538.99h-4.81c0-12.39-10.05-22.44-22.44-22.44s-22.44,10.05-22.44,22.44h-3.53l7.37-30.66h38.47l7.37,30.66Z"/>
  <path class="rw-14" d="M606.93,538.99h-44.88c0-12.39,10.05-22.44,22.44-22.44s22.44,10.05,22.44,22.44"/>
  <polygon class="rw-18" points="600.46 508.34 569.82 508.34 569.82 493.01 600.46 488.87 600.46 508.34"/>
  <polygon class="rw-13" points="569.82 493.01 569.82 484.81 600.46 484.81 600.46 488.87 569.82 493.01"/>
  <path class="rw-24" d="M513.28,127.42c0,5.48-4.44,9.92-9.92,9.92s-9.92-4.44-9.92-9.92,4.44-9.92,9.92-9.92,9.92,4.44,9.92,9.92"/>
  <path class="rw-24" d="M579.68,127.42c0,5.48-4.44,9.92-9.92,9.92s-9.92-4.44-9.92-9.92,4.44-9.92,9.92-9.92,9.92,4.44,9.92,9.92"/>
</svg>
