<?xml version="1.0" encoding="UTF-8"?>
<svg id="Layer_1" data-name="Layer 1" xmlns="http://www.w3.org/2000/svg" viewBox="0 0 250 198.93">
  <defs>
    <style>
      .cls-1 { fill: #551344; }
      .cls-2 { fill: #eca8a8; }
    </style>
  </defs>
  <path class="cls-2" d="M111.62,45.89c-1.19,2.64-1.85,5.58-1.85,8.68,0,1.7.2,3.35.59,4.93H24.68v-13.61h86.94Z"/>
  <polygon class="cls-2" points="128.52 113.98 225.54 59.5 225.54 169.08 24.68 169.08 24.68 59.5 128.52 113.98"/>
  <path class="cls-1" d="M80.13,0v6.28l-.19-.16v82.69l51.5,26.93,47.22-27.05h1.23V0h-99.76ZM152.18,54.57c0,1.7-.2,3.35-.59,4.93-2.21,9.34-10.61,16.27-20.62,16.27s-18.41-6.94-20.62-16.27c-.39-1.59-.59-3.23-.59-4.93,0-3.09.66-6.03,1.85-8.68,3.31-7.4,10.74-12.54,19.36-12.54s16.04,5.14,19.36,12.54c1.19,2.64,1.85,5.58,1.85,8.68Z"/>
  <path class="cls-2" d="M242.79,198.93h-86.69c-3.98,0-7.21-3.23-7.21-7.21s3.23-7.21,7.21-7.21h86.69c3.98,0,7.21,3.23,7.21,7.21s-3.23,7.21-7.21,7.21Z"/>
  <path class="cls-1" d="M52.45,22.94H7.21c-3.98,0-7.21-3.23-7.21-7.21s3.23-7.21,7.21-7.21h45.24c3.98,0,7.21,3.23,7.21,7.21s-3.23,7.21-7.21,7.21Z"/>
</svg>
