<?xml version="1.0" encoding="UTF-8"?>
<svg id="Layer_1" data-name="Layer 1" xmlns="http://www.w3.org/2000/svg" viewBox="0 0 250.87 249.65">
  <defs>
    <style>
      .cls-1 { fill: #f5b62f; }
      .cls-2 { fill: #9ac3fa; }
      .cls-3 { fill: #551344; }
    </style>
  </defs>
  <path class="cls-2" d="M209.76,118.1l-40.08-14.82c-9.07-3.37-16.23-10.53-19.6-19.6l-14.82-40.08c-7.26-19.64-35.05-19.64-42.32,0l-14.82,40.08c-3.37,9.07-10.53,16.23-19.6,19.6l-40.08,14.82c-19.65,7.26-19.65,35.05,0,42.32l40.08,14.84c9.07,3.35,16.23,10.51,19.6,19.6l14.82,40.06c7.26,19.64,35.05,19.64,42.32,0l14.82-40.06c3.37-9.09,10.53-16.24,19.6-19.6l40.08-14.84c19.65-7.26,19.65-35.05,0-42.32ZM113.05,164.02c-15.63,0-28.3-12.66-28.3-28.3s12.67-28.3,28.3-28.3,28.3,12.67,28.3,28.3-12.66,28.3-28.3,28.3Z"/>
  <path class="cls-3" d="M213.35,3.2l8.12,21.94c.73,1.97,2.29,3.53,4.26,4.26l21.94,8.12c4.27,1.58,4.27,7.62,0,9.2l-21.94,8.12c-1.97.73-3.53,2.29-4.26,4.26l-8.12,21.94c-1.58,4.27-7.62,4.27-9.2,0l-8.12-21.94c-.73-1.97-2.29-3.53-4.26-4.26l-21.94-8.12c-4.27-1.58-4.27-7.62,0-9.2l21.94-8.12c1.97-.73,3.53-2.29,4.26-4.26l8.12-21.94c1.58-4.27,7.62-4.27,9.2,0Z"/>
  <path class="cls-1" d="M216.31,248.6c-2.46,0-4.92-.94-6.8-2.82l-34.07-34.07c-3.76-3.76-3.76-9.84,0-13.6,3.76-3.76,9.84-3.75,13.6,0l34.07,34.07c3.76,3.76,3.76,9.84,0,13.6-1.88,1.88-4.34,2.82-6.8,2.82Z"/>
  <path class="cls-1" d="M45.96,78.25c-2.46,0-4.92-.94-6.8-2.82L2.82,39.09c-3.76-3.75-3.76-9.84,0-13.6s9.84-3.76,13.6,0l36.34,36.34c3.76,3.75,3.76,9.84,0,13.6-1.88,1.88-4.34,2.82-6.8,2.82Z"/>
  <path class="cls-1" d="M9.62,248.6c-2.46,0-4.92-.94-6.8-2.82-3.76-3.76-3.76-9.84,0-13.6l31.8-31.8c3.76-3.76,9.84-3.75,13.6,0,3.76,3.76,3.76,9.84,0,13.6l-31.8,31.8c-1.88,1.88-4.34,2.82-6.8,2.82Z"/>
</svg>
