<?xml version="1.0" encoding="UTF-8"?>
<svg id="Layer_1" data-name="Layer 1" xmlns="http://www.w3.org/2000/svg" viewBox="0 0 1080 1060.92">
  <defs>
    <style>
      .cls-1 {
        fill: #bd8131;
      }

      .cls-2 {
        fill: #002f3e;
      }

      .cls-3 {
        fill: #955e25;
      }

      .cls-4 {
        fill: #cf9134;
      }

      .cls-5 {
        fill: #a24431;
      }

      .cls-6 {
        fill: #d4c6d0;
      }

      .cls-7 {
        fill: #8eb9e3;
      }

      .cls-8 {
        fill: #ad722c;
      }

      .cls-9 {
        fill: #7489bf;
      }

      .cls-10 {
        fill: #a56975;
      }

      .cls-11 {
        fill: #360030;
      }

      .cls-12 {
        fill: #f6b53c;
      }

      .cls-13 {
        fill: #6e7caf;
      }

      .cls-14 {
        fill: #616897;
      }

      .cls-15 {
        fill: #031127;
      }

      .cls-16 {
        fill: #2b002d;
      }

      .cls-17 {
        fill: #500f47;
      }

      .cls-18 {
        fill: #adb4b9;
      }

      .cls-19 {
        fill: #e46943;
      }

      .cls-20 {
        fill: #2e0031;
      }

      .cls-21 {
        fill: #7c481d;
      }

      .cls-22 {
        fill: #c5838a;
      }

      .cls-23 {
        fill: #b097ab;
      }

      .cls-24 {
        fill: #3f1141;
      }

      .cls-25 {
        fill: #eba1a1;
      }

      .cls-26 {
        fill: #102637;
      }

      .cls-27 {
        fill: #081c2e;
      }

      .cls-28 {
        fill: #5a5e8b;
      }
    </style>
  </defs>
  <g id="Guidance">
    <path class="cls-17" d="M933.69,466.85c0,257.83-209.02,466.85-466.85,466.85S0,724.68,0,466.85,209.02,0,466.85,0s466.85,209.02,466.85,466.85"/>
    <path class="cls-18" d="M147.66,126.16l-.55-1.24c18.13-16.92,37.28-32.13,57.24-45.63l.49,1.11c-20.26,13.77-39.37,29.07-57.18,45.76"/>
    <path class="cls-24" d="M303.71,476.23L147.66,126.16c17.81-16.7,36.92-32,57.18-45.76l99.05,222.19,42.03,116.55c-5.87,2.97-12.08,7.14-17.95,13.01v.06c-7.08,7.18-12.54,15.89-15.88,25.45l-.02.06-8.36,18.53Z"/>
    <path class="cls-18" d="M89.16,192.38l-.67-1.51c7.8-10.64,16.11-21.02,24.92-31.12l.61,1.37c-8.72,10.06-17.01,20.48-24.86,31.26"/>
    <path class="cls-24" d="M259.44,574.35L89.16,192.38c7.85-10.78,16.14-21.2,24.86-31.26l164.93,369.98-19.51,43.25ZM361.41,803.08l-66.34-148.82,19.54-43.17,64.8,145.35-5.72,14.76h.06l-.13.33h0,0s-12.21,31.56-12.21,31.56"/>
    <path class="cls-18" d="M588.85,16.1c-8.34-2.25-16.77-4.28-25.28-6.07l-.04-.09c8.49,1.82,16.93,3.87,25.33,6.16"/>
    <path class="cls-24" d="M781.78,412.52h-38.79L563.57,10.03c8.51,1.79,16.95,3.82,25.28,6.07,6.25,1.71,12.48,3.55,18.68,5.52l174.26,390.9ZM870.54,698.65l-90.07-202.05h38.79l71.99,161.48c-6.2,13.78-13.1,27.33-20.71,40.57"/>
    <path class="cls-18" d="M251.33,52.61l-.43-.97c49.56-25.65,102.74-41.82,156.88-48.52l.24.54c-55.91,7.03-108.74,23.95-156.69,48.95"/>
    <path class="cls-24" d="M454.51,412.53h0l-6.06-.03-24.8-64.41h11.44c12.73,0,21.44-12.82,16.77-24.65l-8.17-20.67h15.38c6.73,0,10.51-7.73,6.39-13.04l-54.77-70.37h-85.03L251.33,52.62c47.95-25,100.78-41.92,156.69-48.95l182.26,408.86h-135.77ZM689.71,875.99l-37.4-96.15h.37s-1.26-3.26-1.26-3.26h0l-.13-.31-2.19-5.64-9.27-23.11-3.28-8.18-1.74-4.47h-.06l-13.47-33.57h-.4l-30.84-76.06-52.85-128.66h90.55l143.71,322.37c-25.59,22.25-53.02,41.27-81.76,57.02"/>
    <path class="cls-26" d="M346.71,219.36h-38.06c-16.93,0-28.72,16.8-22.98,32.71l65.35,181.18h76.16l-80.46-213.9Z"/>
    <polygon class="cls-25" points="889.9 426.24 1080 426.24 1080 443.47 1015.17 443.47 996.59 489.71 935.38 489.71 917.02 471.34 889.9 472.14 889.9 426.24"/>
    <polygon class="cls-25" points="179.69 778.51 130.8 888.27 165.74 929.7 197.61 858.13 210.91 887.94 219.54 868.57 208.41 836.54 230.74 786.41 179.69 778.51"/>
    <polygon class="cls-17" points="312.02 457.97 150.4 816.06 221.81 816.06 363.36 503.41 312.02 457.97"/>
    <polygon class="cls-11" points="208.41 836.54 208.41 836.54 217.54 816.06 208.41 836.54"/>
    <polygon class="cls-10" points="165.74 929.69 165.74 929.69 156.75 919.04 201.61 816.06 217.54 816.06 208.42 836.54 219.54 868.57 210.9 887.94 197.62 858.13 165.74 929.69"/>
    <polygon class="cls-12" points="651.42 776.58 532.04 776.58 524.96 771.03 649.01 770.63 651.42 776.58"/>
    <polygon class="cls-7" points="388.92 732.04 262.65 1058.08 446.94 1058.08 494.84 930.48 514.91 930.48 564.1 1058.08 761.65 1060.92 634.82 734.88 388.92 732.04"/>
    <path class="cls-17" d="M312.82,504.5l81.87,212.65-21.07,54.38,275.49-.91-27.81-69.31h-185.36l-95.28-249.14c-5.43-14.19.93-29.13,12.94-35.91-34.65,12.07-55,51.31-40.78,88.24"/>
    <polygon class="cls-12" points="312.02 457.97 150.4 816.06 221.81 816.06 363.36 503.41 312.02 457.97"/>
    <path class="cls-12" d="M649.01,770.63l-124.05.4-151.34.49,21.08-54.38-81.87-212.65c-14.23-36.93,6.11-76.17,40.77-88.23,6.94-2.41,14.45-3.75,22.37-3.75h78.55c29.14.01,55.38,17.61,66.47,44.56l69.08,168.17,30.84,76.06,28.11,69.32Z"/>
    <polygon class="cls-12" points="649.11 770.63 649.01 770.63 620.9 701.31 621.31 701.31 649.11 770.63"/>
    <path class="cls-25" d="M326.43,274.09l53.38,138.44h68.66l-24.81-64.43h11.44c12.73,0,21.44-12.82,16.77-24.65l-8.17-20.67h15.38c6.73,0,10.51-7.73,6.39-13.04l-54.77-70.37h-71.07c-16.52,0-19.15,39.3-13.19,54.73"/>
    <path class="cls-26" d="M339.62,219.36h71.04c-3.26,40.2-36.42,71.92-77.23,72.9l-15.77-40.9c-5.95-15.42,5.43-32.01,21.95-32.01"/>
    <path class="cls-25" d="M317.2,284.75c0,9.96,8.07,18.03,18.03,18.03s18.02-8.07,18.02-18.03-8.07-18.03-18.02-18.03-18.03,8.07-18.03,18.03"/>
    <path class="cls-26" d="M339.08,276.24c-1.25-.57-2.56-.83-3.85-.83-3.55,0-6.95,2.04-8.51,5.49-.57,1.25-.83,2.56-.83,3.85,0,1.14.21,2.25.6,3.3l1-.37c-.35-.93-.53-1.92-.53-2.92,0-1.14.24-2.3.74-3.41,1.38-3.06,4.39-4.86,7.54-4.86,1.14,0,2.3.23,3.41.74l.44-.97Z"/>
    <polygon class="cls-9" points="369.72 781.63 373.63 771.53 394.64 771.46 394.61 771.53 373.63 771.53 369.72 781.63"/>
    <path class="cls-20" d="M651.29,776.27l-2.28-5.64h.1l2.19,5.64ZM652.31,779.84l-1.27-3.26h.37l1.26,3.25h-.37"/>
    <polygon class="cls-1" points="651.42 776.58 651.05 776.58 648.73 770.63 649.01 770.63 651.3 776.27 651.42 776.58"/>
    <path class="cls-9" d="M541.8,771.53h-145.79l.03-.07h0s145.59-.48,145.59-.48l.18.55ZM545.01,780.52l-3.21-8.99-.18-.55,37.08-.12,70.03-.23,2.31,5.95,1.27,3.26-107.3.68"/>
    <polygon class="cls-1" points="578.69 770.86 649.01 770.63 648.73 770.63 578.69 770.86"/>
    <polygon class="cls-13" points="644.28 1058.08 564.1 1058.08 583.04 1058.08 528.33 931.09 528.33 930.44 486.38 930.44 486.38 931.74 494.36 931.74 446.94 1058.08 286.91 1058.08 392.21 781.49 545.01 780.52 644.28 1058.08"/>
    <polygon class="cls-13" points="286.2 1058.08 262.65 1058.08 369.71 781.63 390.82 781.5 285.6 1057.85 286.2 1058.08"/>
    <path class="cls-28" d="M392.22,781.49l3.79-9.95h145.79l3.21,8.99-152.79.97ZM369.72,781.63l3.91-10.1h20.98l-3.79,9.97-21.1.13"/>
    <rect class="cls-26" x="486.38" y="930.44" width="41.95" height="1.31"/>
    <rect class="cls-26" x="187.34" y="914" width="306.94" height="1.31" transform="translate(-635.25 907.7) rotate(-69.16)"/>
    <path class="cls-19" d="M337.89,299.57c0,3.63,2.94,6.56,6.56,6.56s6.57-2.94,6.57-6.56-2.94-6.56-6.57-6.56-6.56,2.94-6.56,6.56"/>
    <path class="cls-26" d="M437.73,318.48l-.18.1c-.89.49-4.97,2.53-10.46,2.53-3.14,0-6.74-.66-10.52-2.65l-.72,1.37c4.02,2.12,7.88,2.83,11.24,2.83,6.72,0,11.37-2.81,11.44-2.85l-.8-1.32Z"/>
    <path class="cls-26" d="M412.81,267.61c0,1.88,1.52,3.4,3.4,3.4s3.4-1.52,3.4-3.4-1.52-3.4-3.4-3.4-3.4,1.52-3.4,3.4"/>
    <polygon class="cls-14" points="564.1 1058.08 564.1 1058.08 515.4 931.74 528.33 931.74 528.33 931.09 583.04 1058.08 564.1 1058.08"/>
    <polygon class="cls-27" points="528.33 931.75 515.4 931.75 514.91 930.48 528.33 931.09 528.33 931.75"/>
    <polygon class="cls-12" points="454.52 412.52 890.25 412.52 890.25 496.59 514.91 496.59 454.52 412.52"/>
    <path class="cls-17" d="M763.43,668.46c2.11,0,2.12-3.29,0-3.29s-2.12,3.29,0,3.29"/>
    <polygon class="cls-8" points="890.25 496.59 890.25 496.59 536.9 496.33 523.54 467.47 890.03 467.47 890.08 471.87 890.25 471.87 890.25 496.59"/>
    <polygon class="cls-6" points="996.59 489.7 935.38 489.7 933.24 487.56 935.38 489.7 996.59 489.7 1009.7 457.09 1009.71 457.09 996.59 489.7"/>
    <polygon class="cls-22" points="996.59 489.7 935.38 489.7 933.24 487.56 917.02 471.34 890.25 471.87 890.25 467.47 890.25 456.04 1009.7 457.09 996.59 489.7"/>
    <polygon class="cls-4" points="890.25 467.47 890.03 467.47 889.9 456.04 890.25 456.04 890.25 467.47"/>
    <polygon class="cls-3" points="890.08 471.87 890.03 467.48 890.25 467.48 890.25 471.87 890.08 471.87"/>
    <polygon class="cls-22" points="1080 443.46 1015.17 443.46 1017.63 437.83 1080 437.83 1080 443.46"/>
    <polygon class="cls-22" points="436.71 382.12 385.11 348.1 423.65 348.1 436.71 382.12"/>
    <path class="cls-25" d="M454.52,412.52l-81.36-.34s8.8,25.86,45.74,25.86,35.62-25.52,35.62-25.52"/>
    <path class="cls-19" d="M447.14,429.32l120.88,340.98h-61.24l-114.22-337.95s13.03,6.31,28.28,5.69c19.89-.8,26.31-8.72,26.31-8.72"/>
    <path class="cls-17" d="M541.8,771.53l-111.28-334.82,111.28,334.82Z"/>
    <polygon class="cls-23" points="150.4 816.06 152.31 811.83 152.31 811.83 150.4 816.06"/>
    <path class="cls-11" d="M278.98,531.17l-.03-.07,24.76-54.88.04.08-24.76,54.87ZM379.44,756.51l-.03-.08,15.26-39.37.03.08-5.77,14.9-2.6,6.73-6.88,17.74M152.31,811.83h0l107.13-237.48.03.06-107.16,237.42"/>
    <path class="cls-16" d="M303.75,476.31l-.04-.08,8.36-18.53.02-.06c3.34-9.56,8.8-18.27,15.89-25.45v-.06c5.86-5.87,12.07-10.05,17.94-13.01l.11.3c-5.98,2.95-11.42,6.75-16.19,11.22-7.1,6.64-12.72,14.75-16.45,23.73-.5,1.2-.96,2.41-1.39,3.64l-8.26,18.3Z"/>
    <path class="cls-16" d="M259.47,574.41l-.03-.06,19.51-43.25.03.07-19.52,43.24ZM373.68,771.2l5.72-14.76.03.08-5.69,14.68h-.06"/>
    <path class="cls-15" d="M346.03,419.43l-.11-.3c14.12-7.14,26.31-7.28,27.25-7.28h.06c.05.11.09.22.14.33h-.21s.04.13.14.38c-6.94.26-13.55,1.56-19.7,3.69,0,0,0,0,0,0,0,0,0,0,.01,0-2.61.91-5.13,1.97-7.57,3.17"/>
    <polygon class="cls-13" points="386.31 738.77 388.92 732.04 388.92 732.04 386.31 738.77"/>
    <path class="cls-11" d="M329.84,430.65c4.77-4.47,10.21-8.27,16.19-11.22,2.44-1.2,4.96-2.27,7.57-3.17,0,0,0,0-.01,0-9,3.13-17.03,8.1-23.74,14.38M312,458.01h0c.43-1.23.89-2.44,1.39-3.63-.5,1.2-.96,2.41-1.39,3.63h0M394.69,717.15l-.03-.08.03.08"/>
    <path class="cls-8" d="M292.98,658.68l42.78-94.6.03.06-42.81,94.54ZM150.4,816.06h0l161.6-358.06h0c-5.03,14.37-5.29,30.64.82,46.49l14.46,37.57-125.57,273.77-51.31.23"/>
    <path class="cls-8" d="M373.75,771.2l5.69-14.68,6.88-17.74,2.6-6.72,5.77-14.9-.03-.08.09-.25-58.87-152.91-.1.22-.03-.06.05-.1-7.92-23.22-.6,1.31-14.46-37.56c-6.11-15.85-5.84-32.13-.82-46.49.43-1.23.89-2.44,1.39-3.63,3.73-8.97,9.35-17.08,16.45-23.73,6.71-6.28,14.75-11.25,23.75-14.38h0c6.16-2.14,12.77-3.43,19.7-3.7.86,2.15,5.69,12.99,19.27,19.82l114.21,337.93h32.95l-144.69.77-.22-.09-.03.09-21.03.11Z"/>
    <polygon class="cls-15" points="394.78 771.08 394.81 771 395.04 771.08 394.78 771.08"/>
    <path class="cls-8" d="M418.71,438.09c-1.61,0-3.19-.07-4.73-.2,1.58.1,3.22.16,4.91.16,1.22,0,2.4-.03,3.54-.08-.52.03-1.06.06-1.6.08-.71.03-1.43.04-2.13.04"/>
    <path class="cls-10" d="M418.9,438.05c-1.7,0-3.34-.06-4.91-.16-12.1-1.02-21.42-5.53-21.42-5.53v.03c-13.57-6.83-18.41-17.66-19.26-19.82-.1-.25-.14-.38-.14-.38h.21c9.41,21.73,31.37,25.42,45.21,25.42,7.11,0,12.08-.98,12.08-.98l.1.3c-.06,0-.1.02-.16.03l-.08-.24.08.24c-2.4.46-5.11.83-8.16,1.01-1.14.05-2.32.08-3.54.08"/>
    <path class="cls-5" d="M541.39,770.3l-110.79-333.35c.05-.01.1-.02.15-.03l87.8,264.06,23.1,69.32h-.26ZM539.73,770.31h-32.95l-114.21-337.93v-.02s9.31,4.51,21.41,5.53c1.54.13,3.11.2,4.73.2.71,0,1.41-.01,2.13-.04.54-.02,1.08-.05,1.6-.08,3.05-.19,5.76-.55,8.16-1.01l110.79,333.35h-1.66"/>
    <polygon class="cls-11" points="541.39 770.3 430.6 436.95 430.52 436.71 430.6 436.95 541.39 770.3"/>
    <path class="cls-2" d="M919.32,473.64c-1.91,2.14-4.03,3.23-6.31,3.23-3.46.02-6.82-2.92-9.31-8.01-2.48-5.06-4.04-12.14-4.04-19.97s1.56-14.9,4.04-19.96c2.49-5.09,5.85-8.03,9.31-8.01,3.08,0,5.03,1.37,6.28,2.75.62.69,1.05,1.39,1.33,1.91l.3.62.09.21,1.29-.44c-.02-.06-.56-1.62-1.98-3.22-1.42-1.59-3.79-3.21-7.3-3.21-4.29.02-7.95,3.49-10.54,8.78-2.6,5.31-4.18,12.56-4.18,20.57,0,8.01,1.59,15.26,4.18,20.57,2.59,5.28,6.25,8.75,10.54,8.78,2.74,0,5.25-1.35,7.33-3.69l-1.02-.91Z"/>
    <polygon class="cls-8" points="221.81 816.06 217.53 816.06 201.61 816.06 201.71 815.83 221.87 815.74 292.98 658.68 221.81 816.06"/>
    <polygon class="cls-21" points="201.71 815.83 327.29 542.06 335.76 564.07 292.98 658.68 221.87 815.74 201.71 815.83"/>
    <polygon class="cls-21" points="335.76 564.07 327.29 542.06 327.89 540.75 335.8 563.98 335.76 564.07"/>
  </g>
</svg>
