<?xml version="1.0" encoding="UTF-8"?>
<svg id="Layer_1" data-name="Layer 1" xmlns="http://www.w3.org/2000/svg" viewBox="0 0 1080 857.16">
  <defs>
    <style>
      .cls-1 {
        fill: #ba7a87;
      }

      .cls-2 {
        fill: #c78a34;
      }

      .cls-3 {
        fill: #c8858f;
      }

      .cls-4 {
        fill: #c8cdcf;
      }

      .cls-5 {
        fill: #be7e86;
      }

      .cls-6 {
        fill: #d0923e;
      }

      .cls-7 {
        fill: #450f43;
      }

      .cls-8 {
        fill: #a46978;
      }

      .cls-9 {
        fill: #c35a44;
      }

      .cls-10 {
        fill: #985e77;
      }

      .cls-11 {
        fill: #8a506d;
      }

      .cls-12 {
        fill: #a76a7a;
      }

      .cls-13 {
        fill: #8eb9e3;
      }

      .cls-14 {
        fill: #7f4861;
      }

      .cls-15 {
        fill: #ab6f80;
      }

      .cls-16 {
        fill: #c3963d;
      }

      .cls-17 {
        fill: #f6c05f;
      }

      .cls-18 {
        fill: #da9499;
      }

      .cls-19 {
        fill: #985e76;
      }

      .cls-20 {
        fill: #f6b53c;
      }

      .cls-21 {
        fill: #955b74;
      }

      .cls-22 {
        fill: #fff;
      }

      .cls-23 {
        fill: #b77886;
      }

      .cls-24 {
        fill: #ccbbc8;
      }

      .cls-25 {
        fill: #e98365;
      }

      .cls-26 {
        fill: #a1667c;
      }

      .cls-27 {
        fill: #b37584;
      }

      .cls-28 {
        fill: #500f47;
      }

      .cls-29 {
        fill: #c56d5e;
      }

      .cls-30 {
        fill: #e46943;
      }

      .cls-31 {
        fill: #cf8b93;
      }

      .cls-32 {
        fill: #a0c6e9;
      }

      .cls-33 {
        fill: #8fa1d2;
      }

      .cls-34 {
        fill: #d09b5a;
      }

      .cls-35 {
        fill: #a66a7e;
      }

      .cls-36 {
        fill: #eba1a1;
      }

      .cls-37 {
        fill: #102637;
      }

      .cls-38 {
        fill: #809acf;
      }

      .cls-39 {
        fill: #9d6340;
      }
    </style>
  </defs>
  <g id="Collaborative">
    <path class="cls-20" d="M936.59,431.01c0,187.77-152.22,340-340,340s-340-152.22-340-340S408.82,91.01,596.59,91.01s340,152.22,340,340"/>
    <path class="cls-36" d="M397.67,475.07c-14.55.85-27.04-10.25-27.89-24.81l26.34-1.54,1.54,26.35Z"/>
    <rect class="cls-36" x="367.83" y="383.56" width="26.39" height="65.99" transform="translate(-23.67 22.95) rotate(-3.35)"/>
    <path class="cls-36" d="M456.86,479.29c-13.16,7.11-29.6,2.2-36.7-10.96l23.83-12.87,12.87,23.83Z"/>
    <polygon class="cls-36" points="381.03 395.86 420.16 468.32 443.99 455.45 411.81 395.86 381.03 395.86"/>
    <polygon class="cls-36" points="418.67 382.21 420.32 362.86 334.59 362.87 334.59 380.71 418.67 382.21"/>
    <path class="cls-36" d="M499.84,460.96c-11.92,9.66-29.42,7.83-39.09-4.09l21.59-17.5,17.5,21.59Z"/>
    <polygon class="cls-36" points="402.94 385.56 460.75 456.87 482.34 439.37 420.32 362.86 402.94 385.56"/>
    <path class="cls-36" d="M397.67,475.07c-14.55.85-27.04-10.25-27.89-24.81l26.34-1.54,1.54,26.35Z"/>
    <rect class="cls-36" x="367.83" y="383.56" width="26.39" height="65.99" transform="translate(-23.67 22.95) rotate(-3.35)"/>
    <path class="cls-39" d="M397.67,475.07l-1.54-26.35,1.54,26.35ZM396.1,475.12c-6.16,0-11.88-2.14-16.4-5.74,4.52,3.6,10.25,5.74,16.41,5.74.52,0,1.04-.02,1.56-.05-.52.03-1.05.05-1.57.05"/>
    <path class="cls-19" d="M376.98,466.88c-3.65-3.85-6.16-8.8-6.97-14.36,1.04,7.11,4.83,12.06,6.97,14.36M396.11,475.12c-6.16,0-11.88-2.14-16.41-5.74-.44-.35-.87-.72-1.3-1.1.04.03.06.04.06.04l-.83-18.52,18.5-1.08,1.54,26.35c-.52.03-1.05.05-1.56.05"/>
    <polygon class="cls-19" points="377.63 449.81 377.63 449.81 396.13 448.72 377.63 449.81"/>
    <path class="cls-19" d="M377.63,449.8l-2.36-52.41.15-.15h6.36s12.72,23.55,12.72,23.55l1.63,27.92-18.5,1.08ZM369.77,450.06l-2.6-44.57,8.1-8.1-8.07,8.31,2.57,44.36"/>
    <polyline class="cls-39" points="396.13 448.72 394.49 420.8 394.49 420.8 396.13 448.72"/>
    <path class="cls-36" d="M456.86,479.29c-13.16,7.11-29.6,2.2-36.7-10.96l23.83-12.87,12.87,23.83Z"/>
    <polygon class="cls-36" points="381.03 395.86 420.16 468.32 443.99 455.45 411.81 395.86 381.03 395.86"/>
    <polygon class="cls-36" points="418.67 382.21 420.32 362.86 334.59 362.87 334.59 380.71 418.67 382.21"/>
    <path class="cls-36" d="M499.84,460.96c-11.92,9.66-29.42,7.83-39.09-4.09l21.59-17.5,17.5,21.59Z"/>
    <polygon class="cls-36" points="402.94 385.56 460.75 456.87 482.34 439.37 420.32 362.86 402.94 385.56"/>
    <path class="cls-23" d="M444.02,482.55c-1.87,0-3.73-.2-5.54-.57,0,0,.02,0,.03,0l-9.98-18.17,15.47-8.35,8.46,15.66v10.08c-2.77.91-5.61,1.35-8.43,1.35"/>
    <path class="cls-23" d="M429.69,478.46c-3.88-2.41-7.2-5.83-9.53-10.14,0,0,3.49,6.05,9.53,10.14"/>
    <polygon class="cls-23" points="420.16 468.32 394.5 420.8 381.78 397.25 389.09 397.25 381.86 397.39 420.16 468.32"/>
    <polygon class="cls-23" points="428.53 463.81 391.96 397.25 412.41 397.24 412.85 397.77 443.99 455.45 428.53 463.81"/>
    <path class="cls-31" d="M452.44,436.44l-31.26-39.19h27s4.25,5.25,4.25,5.25v33.95ZM449.68,443.22l-36.84-45.44-.29-.53,37.12,45.97M452.44,446.62l-2.6-3.2,2.6-2.13v5.34"/>
    <polygon class="cls-35" points="412.85 397.77 412.41 397.24 412.56 397.24 412.56 397.25 412.85 397.77"/>
    <path class="cls-6" d="M438.47,481.97c-3.32-.45-6.27-1.81-8.78-3.51,2.71,1.68,5.68,2.86,8.78,3.51"/>
    <path class="cls-26" d="M438.51,481.98s-.02,0-.03,0c-3.1-.64-6.08-1.83-8.79-3.51-6.04-4.09-9.53-10.14-9.53-10.14l8.37-4.52,9.98,18.17Z"/>
    <polygon class="cls-26" points="420.16 468.32 420.16 468.32 381.86 397.39 389.09 397.25 391.96 397.24 428.53 463.81 420.16 468.32"/>
    <rect class="cls-36" x="87.73" y="482.12" width="324.41" height="37.48"/>
    <rect class="cls-36" x="242.65" y="359.77" width="260.78" height="37.48"/>
    <rect class="cls-36" x="94.31" y="421.32" width="189.41" height="37.48" transform="translate(-255.82 262.58) rotate(-45)"/>
    <rect class="cls-36" x="214.64" y="419.97" width="185.64" height="37.48" transform="translate(-220.17 345.95) rotate(-45.01)"/>
    <path class="cls-36" d="M449.31,519.53c0-20.67-16.76-37.43-37.43-37.43v37.43s37.43,0,37.43,0Z"/>
    <path class="cls-36" d="M503.43,397.19c20.67,0,37.43-16.76,37.43-37.43h-37.43s0,37.43,0,37.43Z"/>
    <rect class="cls-36" x="87.72" y="423.89" width="198.35" height="58.24"/>
    <polygon class="cls-36" points="330.76 383.71 253.28 383.72 194.88 463.58 284.87 463.58 330.76 383.71"/>
    <path class="cls-6" d="M449.85,443.42l-.16-.2.16.2Z"/>
    <polygon class="cls-27" points="449.85 443.42 449.68 443.22 412.56 397.25 412.56 397.24 421.18 397.24 452.44 436.44 452.44 441.29 449.85 443.42"/>
    <path class="cls-21" d="M412.56,397.25h0s0,0,0,0Z"/>
    <path class="cls-6" d="M369.97,452.19c-.08-.62-.15-1.27-.18-1.92.04.65.1,1.29.18,1.92M378.4,468.27c-.17-.15-.69-.6-1.39-1.35.45.47.91.92,1.39,1.35"/>
    <path class="cls-3" d="M370.01,452.52c-.02-.11-.03-.22-.05-.33-.08-.64-.15-1.28-.18-1.92.05.76.12,1.52.23,2.26M378.41,468.28s0,0,0,0c-.48-.43-.94-.89-1.38-1.35l-.04-.04c.46.48.94.95,1.43,1.4"/>
    <polygon class="cls-3" points="369.78 450.26 369.78 450.26 369.77 450.06 369.78 450.26"/>
    <path class="cls-11" d="M378.46,468.32s-.02-.02-.05-.05c-.5-.45-.97-.91-1.43-1.4-2.14-2.29-5.93-7.25-6.96-14.36-.11-.74-.19-1.5-.23-2.26l7.84-.46.83,18.52Z"/>
    <polygon class="cls-11" points="369.78 450.26 369.78 450.26 377.63 449.8 369.78 450.26"/>
    <polygon class="cls-11" points="369.78 450.26 369.77 450.06 367.2 405.7 375.27 397.39 375.27 397.39 377.63 449.8 369.78 450.26"/>
    <path class="cls-24" d="M173.44,482.13h0s64.11,0,64.11,0h-64.11ZM87.73,482.14h32.72s-32.72,0-32.72,0M87.73,519.62v-57.7s0,0,0,0v20.22s0,37.48,0,37.48"/>
    <path class="cls-2" d="M503.48,397.23h-.05v-16.71s0,16.66,0,16.66c.88,0,1.76-.03,2.62-.09-1.43.13-2.36.14-2.58.14M290.56,482.12l76.61-76.62-76.61,76.62h0M448.81,513.4c-1.15-6.99-4.24-13.33-8.7-18.44,5.71,4.73,7.87,12.84,8.7,18.44M412.14,519.54h0s37.17,0,37.17,0v-.2.2h-37.17"/>
    <polygon class="cls-5" points="367.16 405.5 367.16 405.5 367.17 405.5 367.16 405.5"/>
    <polygon class="cls-14" points="367.17 405.5 367.17 405.5 375.42 397.24 375.27 397.39 375.27 397.39 367.17 405.5"/>
    <path class="cls-5" d="M135.97,519.61l37.47-37.47h64.11s-8.97,8.97-8.97,8.97l26.5,26.5,35.47-35.48-8.8,8.8,130.12,3.32v25.3h.26s-276.16.07-276.16.07ZM87.73,519.62v-37.48s32.71,0,32.71,0l-11.64,11.64,25.83,25.83h-46.91"/>
    <path class="cls-5" d="M323.74,395.92l7.02-12.21h-64.14s-.17-.16-.17-.16l70.57-.9-13.27,13.28ZM375.41,397.25l10.92-10.93-4.25-4.25,121.34-1.55v16.71h-82.25s-.04-.05-.04-.05l-8.57.06h-37.15s0,0,0,0"/>
    <path class="cls-5" d="M253.28,383.72l13.16-.17.17.16h-13.33ZM134.64,519.61l-25.83-25.83,11.64-11.64h53s-37.47,37.47-37.47,37.47h-1.34"/>
    <polygon class="cls-5" points="255.08 517.6 228.58 491.1 237.55 482.12 237.56 482.12 286.07 482.12 286.07 461.49 323.74 395.92 337.01 382.65 382.09 382.07 386.34 386.32 375.41 397.24 367.17 405.5 367.16 405.5 290.56 482.12 255.08 517.6"/>
    <path class="cls-5" d="M411.88,519.54v-25.3s28.22.72,28.22.72c0,0,0,0,0,0,4.46,5.12,7.55,11.45,8.7,18.44.44,2.99.49,5.27.5,5.93v.2h-37.17s-.26,0-.26,0Z"/>
    <polygon class="cls-5" points="212.32 423.89 253.28 383.72 223.91 423.89 212.32 423.89"/>
    <path class="cls-2" d="M515.87,395.07c7.84-2.76,14.48-8.06,18.95-14.91-4.75,8.5-12.39,12.77-18.95,14.91"/>
    <path class="cls-5" d="M503.43,397.19v-16.66l31.4-.4s-.01.02-.02.04c-4.46,6.85-11.11,12.15-18.95,14.91-3.96,1.3-7.53,1.82-9.81,2.03-.87.06-1.74.09-2.62.09"/>
    <polygon class="cls-5" points="87.73 482.14 87.72 461.92 178.68 456.87 212.32 423.89 223.91 423.88 194.88 463.58 284.87 463.58 286.07 461.49 286.07 482.12 237.56 482.13 173.45 482.13 120.44 482.14 87.73 482.14"/>
    <polygon class="cls-5" points="194.88 463.58 223.91 423.88 253.28 383.72 266.62 383.72 330.76 383.71 323.74 395.92 286.07 461.49 284.88 463.58 194.88 463.58"/>
    <polygon class="cls-8" points="412.56 397.24 421.14 397.19 421.18 397.24 412.56 397.24"/>
    <path class="cls-36" d="M715.58,255.62c11.45-9.02,13.42-25.61,4.41-37.06l-20.74,16.33,16.33,20.74Z"/>
    <rect class="cls-36" x="676.01" y="167.8" width="26.39" height="65.99" transform="translate(23.5 469.43) rotate(-38.22)"/>
    <path class="cls-36" d="M674.09,298.05c14.56-3.41,23.6-17.99,20.19-32.55l-26.37,6.19,6.18,26.37Z"/>
    <polygon class="cls-36" points="675.48 185.32 694.28 265.49 667.91 271.68 652.44 205.74 675.48 185.32"/>
    <polygon class="cls-36" points="638.26 200.07 624.18 186.69 688.33 129.82 700.16 143.17 638.26 200.07"/>
    <path class="cls-36" d="M629.77,312.85c15.33-.68,27.21-13.66,26.53-28.99l-27.76,1.23,1.23,27.76Z"/>
    <polygon class="cls-36" points="652.24 192.15 656.31 283.85 628.54 285.08 624.18 186.69 652.24 192.15"/>
    <path class="cls-36" d="M715.58,255.62c11.45-9.02,13.42-25.61,4.41-37.06l-20.74,16.33,16.33,20.74Z"/>
    <rect class="cls-36" x="676.01" y="167.8" width="26.39" height="65.99" transform="translate(23.5 469.43) rotate(-38.22)"/>
    <path class="cls-19" d="M715.58,255.62l-16.33-20.74,14.65-11.54,11.6,14.25s0,0,0-.02c-.7,6.86-4.08,13.44-9.93,18.04"/>
    <path class="cls-19" d="M696.35,188.55l-4.11-5.19-2.29-.16,2.29.14,4.11,5.22ZM699.25,234.89l-17.27-21.93-6.14-26.11,4.75-4.21h.19s33.12,40.72,33.12,40.72l-14.65,11.54"/>
    <path class="cls-36" d="M674.09,298.05c14.56-3.41,23.6-17.99,20.19-32.55l-26.37,6.19,6.18,26.37Z"/>
    <polygon class="cls-36" points="675.48 185.32 694.28 265.49 667.91 271.68 652.44 205.74 675.48 185.32"/>
    <polygon class="cls-36" points="638.26 200.07 624.18 186.69 688.33 129.82 700.16 143.17 638.26 200.07"/>
    <path class="cls-36" d="M629.77,312.85c15.33-.68,27.21-13.66,26.53-28.99l-27.76,1.23,1.23,27.76Z"/>
    <polygon class="cls-36" points="652.24 192.15 656.31 283.85 628.54 285.08 624.18 186.69 652.24 192.15"/>
    <path class="cls-23" d="M674.09,298.05l-6.18-26.37,17.17-4.03,4.52,19.87c6.22-7.2,5.31-17.92,4.83-21.32.38,1.87.57,3.73.56,5.58-.03,12.26-8.45,23.35-20.91,26.27"/>
    <polygon class="cls-23" points="667.91 271.68 652.94 207.85 652.91 207.18 668.22 193.6 685.08 267.65 667.91 271.68"/>
    <path class="cls-18" d="M653.57,222.07c-.35-7.56-.62-13.22-.71-14.55l.08.33.63,14.22ZM648.89,274.98h-20.8l-1.96-44.07,26.66-23.64-5.4,4.79,1.49,62.92"/>
    <path class="cls-15" d="M652.94,207.85l-.08-.33c0-.16-.02-.25-.02-.29l-.03.03.11-.09.03.68Z"/>
    <rect class="cls-36" x="539.55" y="148.29" width="260.78" height="37.48" transform="translate(57.85 486.51) rotate(-41.56)"/>
    <rect class="cls-36" x="829.72" y="-3.72" width="37.48" height="189.41" transform="translate(706.75 932.46) rotate(-86.56)"/>
    <rect class="cls-36" x="740.21" y="75.75" width="37.48" height="185.64" transform="translate(545.16 916.04) rotate(-86.56)"/>
    <path class="cls-36" d="M706.44,323.15c-13.72-15.47-12.29-39.12,3.17-52.84l24.83,28.01-28.01,24.83Z"/>
    <path class="cls-36" d="M584.78,267.52c-15.47,13.71-39.12,12.29-52.84-3.17l28.01-24.83,24.83,28.01Z"/>
    <polygon class="cls-36" points="1080 0 734.29 298.53 709.43 270.49 803.75 186.85 765.12 143.27 935.73 0 1080 0"/>
    <polygon class="cls-36" points="705.03 142.87 763 91.47 859.68 112.48 792.35 172.19 705.03 142.87"/>
    <path class="cls-6" d="M655.92,274.98h0l-2.34-52.91c.8,17.55,2.01,45.33,2.35,52.91"/>
    <path class="cls-1" d="M655.91,274.98h-7.02l-1.49-62.92,5.4-4.79.06.25c.09,1.32.36,6.99.71,14.55l2.34,52.91Z"/>
    <path class="cls-10" d="M652.86,207.52l-.06-.25.03-.03s.02.13.02.28"/>
    <path class="cls-24" d="M847.28,201.32c-.07-.07-.12-.13-.18-.2L1080,0l-232.72,201.32Z"/>
    <path class="cls-2" d="M582.48,269.4c.78-.59,1.55-1.22,2.29-1.88l-11.26-12.7,11.29,12.73,27.3-24.2-27.27,24.19s-.84.76-2.36,1.86M572.11,274.98h-.17c.76-.26,1.51-.54,2.26-.85-.67.29-1.37.58-2.08.85M701.62,316.32c-2.76-4.66-5.49-11.12-4.6-17.47.08,6.01,1.61,12.02,4.6,17.47M706.7,322.92l27.55-24.43.03.04,112.8-97.41c.07.07.12.13.18.2l-140.57,121.6"/>
    <path class="cls-5" d="M718.38,147.36l-21.6-1.3,53.39-47.11,2.92.18-.07,1.2-48,42.55,13.36,4.48ZM584.81,267.56l-11.29-12.73,92.14-81.31-.49,8.19,15.39.92-4.73,4.2-.04-.17-7.67,6.54.09.39-56.11,49.77-27.3,24.2"/>
    <polygon class="cls-5" points="753.02 100.32 753.09 99.12 754.29 99.2 753.02 100.32"/>
    <polygon class="cls-5" points="800.46 189.77 686.71 182.96 680.69 182.53 680.75 182.6 680.6 182.59 680.57 182.63 665.17 181.7 665.67 173.51 696.78 146.06 718.38 147.36 790.07 171.42 803.75 186.85 800.46 189.77"/>
    <path class="cls-5" d="M706.49,323.11s-2.44-2.7-4.86-6.79c-2.99-5.45-4.52-11.46-4.6-17.47,0-.08.02-.16.03-.24l20.41-19.06,16.79,18.93-27.55,24.43-.22.19Z"/>
    <path class="cls-5" d="M571.94,274.98h-21.27l22.85-20.16,11.26,12.7c-.75.66-1.51,1.29-2.29,1.88-1.85,1.34-4.71,3.17-8.29,4.74-.74.3-1.5.59-2.26.84"/>
    <polygon class="cls-5" points="734.29 298.53 734.26 298.49 717.47 279.56 812.83 190.51 800.46 189.77 803.75 186.85 790.07 171.42 792.34 172.19 859.68 112.48 815.88 102.97 877.07 106.71 1005.36 0 1080 0 847.09 201.12 734.29 298.53"/>
    <polygon class="cls-5" points="792.35 172.19 790.07 171.42 718.38 147.36 705.03 142.87 753.02 100.32 754.29 99.2 815.88 102.96 859.68 112.48 792.35 172.19"/>
    <path class="cls-6" d="M694.43,266.2c-.05-.24-.1-.47-.16-.71l-12.33-52.58.04.05,12.27,52.17s.08.39.18,1.07"/>
    <polygon class="cls-11" points="681.98 212.96 681.95 212.91 675.84 186.85 675.84 186.85 681.98 212.96"/>
    <path class="cls-26" d="M689.6,287.52l-4.52-19.87,9.2-2.16c.06.24.11.47.15.7.48,3.4,1.39,14.12-4.83,21.32"/>
    <polygon class="cls-26" points="685.08 267.65 668.22 193.6 675.83 186.85 694.28 265.5 685.08 267.65"/>
    <polygon class="cls-3" points="668.22 193.6 668.22 193.58 675.84 186.82 675.84 186.85 675.83 186.85 668.22 193.6"/>
    <polygon class="cls-12" points="668.22 193.58 668.13 193.19 675.8 186.66 675.84 186.82 668.22 193.58"/>
    <rect class="cls-30" x="452.45" y="399.07" width="301" height="197.39"/>
    <polygon class="cls-17" points="452.45 547.92 452.45 525.62 452.45 525.62 452.45 547.92"/>
    <polygon class="cls-25" points="465.01 574.9 452.46 574.03 452.45 547.92 452.45 525.62 594.29 399.07 660.12 399.06 465.01 574.9"/>
    <polygon class="cls-17" points="501.61 596.48 501.63 596.46 502.28 596.46 501.61 596.48"/>
    <polygon class="cls-25" points="553.69 581.08 521.36 578.83 722.55 399.07 753.45 399.05 753.45 400.57 553.69 581.08"/>
    <path class="cls-17" d="M753.46,594.99h0v-103.15s0,0,0,0v103.15ZM751.47,596.44h2-2M645.29,596.46h.01s105.83-.02,105.83-.02h-2.09l-52,.02h-51.74"/>
    <polygon class="cls-25" points="753.46 594.99 653.97 588.06 753.45 491.85 753.46 594.99"/>
    <path class="cls-17" d="M565.22,399.07l.02-.02,8.43.02h-8.45ZM452.45,509.32v-9.85s0,0,0,0v9.85"/>
    <polygon class="cls-25" points="452.45 509.76 452.45 509.32 452.45 499.47 565.22 399.07 573.67 399.07 574.38 399.07 452.45 509.76"/>
    <rect class="cls-28" x="372.13" y="596.47" width="461.65" height="260.67"/>
    <path class="cls-16" d="M405.71,596.48h.6-.6ZM372.12,653.85v-6.04,6.04"/>
    <polygon class="cls-7" points="372.12 653.85 372.12 647.81 372.12 629.03 405.71 596.48 406.31 596.48 430.18 596.48 372.12 653.85"/>
    <path class="cls-4" d="M372.14,857.16v-52.96s0,52.96,0,52.96Z"/>
    <polygon class="cls-7" points="372.14 857.16 372.14 804.2 584.08 596.49 643.28 596.48 372.14 857.16"/>
    <polygon class="cls-16" points="724.64 596.46 749.03 596.44 751.47 596.44 751.45 596.45 724.64 596.46"/>
    <polygon class="cls-7" points="495.42 857.15 412.48 857.15 676.53 596.48 724.64 596.46 751.45 596.46 495.42 857.15"/>
    <rect class="cls-4" x="539.83" y="847.31" width="0" height="19.68"/>
    <polyline class="cls-7" points="529.99 857.15 778.92 596.48 800.19 596.48 549.68 857.14 529.99 857.15"/>
    <path class="cls-4" d="M833.78,719.11v-44.49s0,0,0,0v44.49s0,0,0,0ZM577.86,857.14h127.96s0,0,0,0h-127.96"/>
    <path class="cls-16" d="M833.77,674.62v-78.17s0,78.16,0,78.16h0"/>
    <polyline class="cls-7" points="577.86 857.14 824.13 596.48 833.77 596.45 833.77 674.62 833.78 719.11 705.83 857.13 577.86 857.14"/>
    <path class="cls-22" d="M103.77,473.22h-16.05v-49.32h31.44v33.93c-6.01,6.01-9.38,9.38-15.4,15.4"/>
    <path class="cls-22" d="M103.16,473.22h-15.42v47.05h31.43v-31.04c-6.25-6.25-9.76-9.76-16.01-16.01"/>
    <rect class="cls-37" y="423.9" width="87.72" height="98.42"/>
    <path class="cls-6" d="M725.51,237.58c.09-.91.14-1.82.14-2.74,0-5.71-1.85-11.45-5.66-16.28l-23.64-30.01,23.61,29.8c6.95,8.75,5.62,18.7,5.54,19.24"/>
    <path class="cls-11" d="M725.5,237.6l-11.6-14.25,6.08-4.79c3.81,4.83,5.65,10.58,5.66,16.28,0,.91-.05,1.83-.14,2.74,0,.02,0,.02,0,.02"/>
    <polygon class="cls-11" points="713.9 223.35 680.78 182.64 689.96 183.19 692.24 183.36 696.35 188.55 719.99 218.56 713.9 223.35"/>
    <polygon class="cls-3" points="689.96 183.19 680.78 182.64 680.75 182.6 686.71 182.96 689.96 183.19"/>
    <polygon class="cls-12" points="686.71 182.96 680.75 182.6 680.69 182.53 686.71 182.96"/>
    <rect class="cls-13" x="540.96" y="274.98" width="123.99" height="123.99"/>
    <polygon class="cls-32" points="540.96 359.66 540.96 299.25 568.12 274.98 635.23 274.98 540.96 359.66"/>
    <polygon class="cls-17" points="591.95 399.06 540.96 398.97 592.06 398.97 591.95 399.06"/>
    <path class="cls-32" d="M611.84,381.2l-62.57-4.36,114-101.86h1.68v58.51l-53.11,47.71ZM592.06,398.97h-51.1v-14.7h0s0,14.44,0,14.44h51.38s-.3.27-.3.27"/>
    <polygon class="cls-6" points="452.46 596.47 452.44 574.03 452.46 574.03 452.46 596.47 501.63 596.46 452.46 596.47"/>
    <path class="cls-9" d="M502.28,596.46l35.16-.69,16.25-14.69,100.28,6.98-8.67,8.39h-143.02ZM452.46,596.47v-22.44s0,0,0,0v12.18s12.55-11.31,12.55-11.31l56.35,3.93-19.74,17.64h-49.17"/>
    <polygon class="cls-29" points="452.46 586.21 452.46 574.03 465.01 574.9 452.46 586.21"/>
    <polygon class="cls-29" points="501.63 596.46 521.36 578.83 553.69 581.08 537.44 595.77 502.28 596.46 501.63 596.46"/>
    <polyline class="cls-34" points="751.47 596.44 751.47 596.44 753.46 596.44 753.46 594.99 753.46 596.44 751.47 596.44"/>
    <polygon class="cls-29" points="645.3 596.45 653.97 588.06 753.46 594.99 753.46 596.44 751.47 596.44 751.13 596.44 645.3 596.45"/>
    <path class="cls-38" d="M540.96,384.26v-8s8.3.58,8.3.58l-8.3,7.42ZM592.36,398.7l19.48-17.5,53.11,3.7v13.79h-72.59"/>
    <polygon class="cls-33" points="540.98 398.7 540.96 384.26 549.27 376.84 611.84 381.2 592.36 398.7 540.98 398.7"/>
  </g>
</svg>
