<?xml version="1.0" encoding="UTF-8"?>
<svg id="Layer_1" data-name="Layer 1" xmlns="http://www.w3.org/2000/svg" viewBox="0 0 1080 540.4">
  <defs>
    <style>
      .cls-1 {
        fill: #7ec9a8;
      }

      .cls-2 {
        fill: #43063c;
      }

      .cls-3 {
        fill: #805c7d;
      }

      .cls-4 {
        fill: #6f4b6c;
      }

      .cls-5 {
        fill: #cf9134;
      }

      .cls-6 {
        fill: #ebf5f1;
      }

      .cls-7 {
        fill: #8eb9e3;
      }

      .cls-8 {
        fill: #c2583b;
      }

      .cls-9 {
        fill: #f6b53c;
      }

      .cls-10 {
        fill: #5d9581;
      }

      .cls-11 {
        fill: #616897;
      }

      .cls-12 {
        fill: #fff;
      }

      .cls-13 {
        fill: #aa6d78;
      }

      .cls-14 {
        fill: #67ba99;
      }

      .cls-15 {
        fill: #500f47;
      }

      .cls-16 {
        fill: #e46943;
      }

      .cls-17 {
        fill: #545783;
      }

      .cls-18 {
        fill: #c5838a;
      }

      .cls-19 {
        fill: #00aa61;
      }

      .cls-20 {
        fill: #40b76f;
      }

      .cls-21 {
        fill: #7b99cf;
      }

      .cls-22 {
        fill: #c7c3ca;
      }

      .cls-23 {
        fill: #6f80b3;
      }

      .cls-24 {
        fill: #eba1a1;
      }

      .cls-25 {
        fill: #102637;
      }

      .cls-26 {
        fill: #081c2e;
      }
    </style>
  </defs>
  <g id="Peace_of_Mind" data-name="Peace of Mind">
    <path class="cls-16" d="M1080,540v.4H0v-.4C0,241.77,241.77,0,540,0s540,241.77,540,540"/>
    <path class="cls-3" d="M783.48,268.12c0,33.82-13.71,64.43-35.87,86.6-22.17,22.16-52.79,35.87-86.6,35.87h-254.79c-33.82,0-64.44-13.71-86.61-35.87-22.16-22.17-35.87-52.78-35.87-86.6s13.71-64.42,35.87-86.59c22.17-22.16,52.79-35.87,86.61-35.87h254.79c33.82,0,64.43,13.71,86.6,35.87,22.16,22.17,35.87,52.78,35.87,86.59"/>
    <path class="cls-15" d="M840.03,268.57c0,41.61-16.87,79.29-44.14,106.57-27.28,27.28-64.96,44.14-106.57,44.14h-313.56c-41.62,0-79.29-16.86-106.57-44.14-27.28-27.28-44.14-64.95-44.14-106.57h57.66c0,51.39,41.65,93.05,93.05,93.06h313.56c51.39,0,93.05-41.67,93.05-93.06h57.66Z"/>
    <path class="cls-4" d="M388.47,360.17c-13.9-4.97-21.22-21.72-13.45-35.8l62.47-113.05c10.92-19.76,31.71-32.03,54.29-32.03h13.95v8.77h-1.15c-19.83,0-38.09,10.77-47.68,28.13l-53.13,96.16h-.02l-1.16,2.12-.56,1.01c-.12.21-.23.42-.33.63l-16.53,30.33c-2.79,5.11-.95,11.02,3.3,13.74"/>
    <rect class="cls-25" x="505.73" y="178.21" width="60.81" height="14.19"/>
    <rect class="cls-24" x="521.45" y="156.47" width="32.43" height="37.27"/>
    <rect class="cls-8" x="521.45" y="141.39" width="32.43" height="4.27"/>
    <polygon class="cls-4" points="553.88 178.21 553.88 178.21 553.88 156.47 521.45 156.47 521.45 145.66 553.88 145.66 553.88 178.21"/>
    <polygon class="cls-18" points="553.88 183.05 521.45 171.61 521.45 156.47 553.88 156.47 553.88 178.21 553.88 183.05"/>
    <polygon class="cls-20" points="565.9 508.34 604.37 508.34 611.75 538.99 558.53 538.99 565.9 508.34"/>
    <path class="cls-24" d="M570.13,110.39v30.25c0,1.21-.07,2.39-.2,3.57-1.78,16.25-15.55,28.89-32.27,28.89s-30.49-12.64-32.26-28.89c-.13-1.18-.2-2.36-.2-3.57v-30.25c0-12.09,9.81-21.9,21.9-21.9h21.12c12.09,0,21.9,9.81,21.9,21.9"/>
    <path class="cls-9" d="M536.4,188.05h-31.82c-19.83,0-38.09,10.77-47.68,28.13l-54.87,99.29c-8.12,14.7,2.51,32.72,19.3,32.72h115.07v-160.14Z"/>
    <path class="cls-9" d="M536.4,188.05h31.82c19.83,0,38.09,10.77,47.68,28.13l54.87,99.29c8.12,14.7-2.51,32.72-19.3,32.72h-115.07v-160.14Z"/>
    <path class="cls-1" d="M606.93,538.99c0-12.39-10.05-22.44-22.44-22.44s-22.44,10.05-22.44,22.44h44.88Z"/>
    <rect class="cls-24" x="569.82" y="477.68" width="30.64" height="30.66"/>
    <path class="cls-25" d="M536.4,88.49h-9.3c-12.09,0-21.9,9.81-21.9,21.9v10.53c17.35-.66,31.21-14.92,31.21-32.43"/>
    <path class="cls-25" d="M548.22,88.49h-11.68c1.46,16.57,15.37,29.57,32.33,29.57.42,0,.84-.02,1.26-.03v-7.64c0-12.09-9.81-21.9-21.9-21.9"/>
    <path class="cls-25" d="M571.97,59.78c0,18.94-15.36,34.3-34.3,34.3s-34.3-15.36-34.3-34.3,15.36-34.3,34.3-34.3,34.3,15.36,34.3,34.3"/>
    <rect class="cls-24" x="627.78" y="328.96" width="47.13" height="32.66"/>
    <path class="cls-20" d="M648.02,327.27c19.73,16.14,11.3,36.8,11.3,36.8l21.85,26.53c16.43,19.26,30.99,14.88,30.99,14.88l-46.72-82.85-17.43,4.64Z"/>
    <polygon class="cls-6" points="712.17 405.48 665.45 322.62 674.01 320.34 720.96 403.13 712.17 405.48"/>
    <polyline class="cls-15" points="305.74 385.12 305.74 538.99 310.03 538.99 310.03 385.12"/>
    <polyline class="cls-15" points="763.05 396.84 763.05 538.99 767.34 538.99 767.34 396.84"/>
    <rect class="cls-7" x="558.53" y="361.62" width="55.54" height="123.19"/>
    <path class="cls-7" d="M403.75,312.35l-18.58,34.08c-3.91,7.17,1.28,15.91,9.44,15.2h235.64v-49.28h-226.51Z"/>
    <path class="cls-16" d="M595.08,311.63h-117.34v-62.5c0-3.46,2.8-6.26,6.26-6.26h104.82c3.46,0,6.26,2.8,6.26,6.26v62.5Z"/>
    <path class="cls-1" d="M712.17,405.48l-14.43-25.6-16.56,10.71s11.46,17.05,30.99,14.88"/>
    <path class="cls-24" d="M536.4,188.05v24.78s-27.39.59-27.39-24.78h27.39Z"/>
    <path class="cls-24" d="M536.4,188.05v24.78s27.39.59,27.39-24.78h-27.39Z"/>
    <polygon class="cls-9" points="522.45 219.87 493.49 190.9 505.73 178.66 534.7 207.62 529.03 213.29 522.45 219.87"/>
    <rect class="cls-9" x="538.24" y="190.61" width="40.96" height="17.31" transform="translate(22.74 453.43) rotate(-45)"/>
    <path class="cls-25" d="M525.43,135.35c0,1.1-.89,1.99-1.99,1.99s-1.99-.89-1.99-1.99.89-1.99,1.99-1.99,1.99.89,1.99,1.99"/>
    <path class="cls-25" d="M553.88,135.35c0,1.1-.89,1.99-1.99,1.99s-1.99-.89-1.99-1.99.89-1.99,1.99-1.99,1.99.89,1.99,1.99"/>
    <path class="cls-25" d="M527.77,159.77s4.35,4.92,11.03,4.93c2.95,0,6.33-.97,9.95-3.71l-.4-.52c-3.52,2.67-6.75,3.58-9.55,3.58-3.17,0-5.81-1.17-7.66-2.36-.92-.59-1.65-1.18-2.14-1.63-.25-.22-.43-.4-.56-.53l-.18-.19-.49.43Z"/>
    <path class="cls-25" d="M536.02,130.12v18.32c0,1.78,1.46,3.03,3.03,3.03.56,0,1.14-.16,1.66-.51l3.22-2.13-.42-.64-3.22,2.13c-.4.26-.82.38-1.24.38-1.18,0-2.27-.93-2.27-2.27v-18.32h-.76Z"/>
    <polygon class="cls-25" points="534.43 207.35 522.45 219.33 493.76 190.64 493.22 191.17 522.45 220.41 534.97 207.89 534.43 207.35"/>
    <polygon class="cls-25" points="537.84 207.89 550.36 220.41 579.59 191.17 579.05 190.63 550.36 219.33 538.38 207.35 537.84 207.89"/>
    <path class="cls-12" d="M542.7,212.2l1.04,30.67h-13.63v-30.67s2.65.71,6.71.55c4.01,0,5.88-.55,5.88-.55"/>
    <rect class="cls-25" x="443.12" y="292.97" width="36.21" height=".76" transform="translate(-79.69 214.66) rotate(-24.18)"/>
    <rect class="cls-25" x="611.21" y="275.25" width=".76" height="36.21" transform="translate(93.46 731.12) rotate(-65.82)"/>
    <polygon class="cls-21" points="614.07 484.81 558.53 484.81 558.53 375.01 614.07 367.51 614.07 419.28 614.07 484.81"/>
    <polygon class="cls-11" points="558.53 375.01 558.53 361.63 614.07 361.63 614.07 367.51 558.53 375.01"/>
    <path class="cls-19" d="M611.75,538.99h-4.81c0-12.39-10.05-22.44-22.44-22.44s-22.44,10.05-22.44,22.44h-3.53l7.37-30.66h38.47l7.37,30.66Z"/>
    <path class="cls-14" d="M606.93,538.99h-44.88c0-12.39,10.05-22.44,22.44-22.44s22.44,10.05,22.44,22.44"/>
    <polygon class="cls-18" points="600.46 508.34 569.82 508.34 569.82 493.01 600.46 488.87 600.46 508.34"/>
    <polygon class="cls-13" points="569.82 493.01 569.82 484.81 600.46 484.81 600.46 488.87 569.82 493.01"/>
    <path class="cls-5" d="M595.08,285.94v-23.77l.27.05v23.43l-.11-.05-.16.35ZM595.35,311.63h-58.94,58.67v-25.27l.27.12v25.15"/>
    <path class="cls-5" d="M477.73,249.14v-.41c0-1.34.51-2.55,1.34-3.46-.84,1.07-1.34,2.41-1.34,3.87"/>
    <path class="cls-8" d="M595.08,311.63h-117.34v-25.27l.16-.07-.16-.35h0v-36.8c0-1.46.5-2.8,1.34-3.87.95-1.04,2.3-1.68,3.79-1.68.22,0,.45.01.67.04l111.54,18.53v23.77l-.15.35.15.07v25.27Z"/>
    <polygon class="cls-26" points="477.73 286.36 477.73 285.94 477.89 286.29 477.73 286.36"/>
    <polygon class="cls-26" points="595.35 286.48 595.08 286.36 594.92 286.29 595.08 285.94 595.23 285.59 595.35 285.64 595.35 286.48"/>
    <polygon class="cls-5" points="445.24 300.11 477.73 260.31 477.73 285.94 477.58 285.59 445.24 300.11"/>
    <polygon class="cls-26" points="444.7 300.77 445.24 300.11 477.58 285.59 477.73 285.94 444.7 300.77"/>
    <path class="cls-5" d="M627.99,300.3l-32.65-14.66v-25.33l32.65,39.99ZM628.37,300.77l-.22-.1.05-.11.17.21"/>
    <polygon class="cls-26" points="628.15 300.67 595.35 285.94 595.35 285.64 627.99 300.3 628.2 300.56 628.15 300.67"/>
    <path class="cls-19" d="M708.28,405.9c-2.53,0-6.16-.45-10.47-2.3,3.23,1.25,6.89,2.06,10.94,2.06,1.11,0,2.24-.06,3.4-.19-.12.04-1.52.43-3.87.43"/>
    <path class="cls-14" d="M708.75,405.67c-4.05,0-7.71-.81-10.94-2.06,0,0,0,0,0,0,.05.02.11.04.16.06,3.16,1.21,6.74,1.99,10.69,2h.11c.96,0,1.95-.05,2.96-.14,0,0,.01,0,.02,0,.05,0,.09,0,.14-.01.09,0,.19-.02.28-.03,0,0,0,0,0,0-1.16.13-2.3.19-3.4.19"/>
    <polyline class="cls-2" points="660.09 361.63 614.07 361.63 630.26 361.63 630.26 361.62 660.09 361.62 660.09 361.63"/>
    <path class="cls-18" d="M660.09,361.62h-29.83v-25h26.12c6.35,10.26,4.87,20.46,3.71,25"/>
    <path class="cls-19" d="M712.17,405.48l-14.43-25.59-16.56,10.71-21.85-26.53s.36-.89.76-2.44h0c1.16-4.54,2.64-14.74-3.71-25h16.97l38.82,68.85h0Z"/>
    <polygon class="cls-2" points="716.12 404.43 720.96 403.14 706.85 378.26 720.96 403.14 716.12 404.43"/>
    <polyline class="cls-22" points="712.17 405.48 673.35 336.63 683.24 336.63 706.85 378.26 720.96 403.13 716.12 404.43 712.17 405.47"/>
    <path class="cls-21" d="M630.26,361.63h-16.19s-55.54,0-55.54,0h-164.61c-7.41-.14-12.04-8.16-8.39-14.67l5.79-10.33h238.94v25h0Z"/>
    <path class="cls-14" d="M708.75,405.67h-.09c-3.95-.01-7.53-.8-10.69-2-.05-.02-.11-.04-.16-.06h0c-4.88-2.1-10.62-5.98-16.62-12.99h0s16.56-10.73,16.56-10.73l14.43,25.6h0c-.09.01-.19.02-.28.03-.05,0-.09.01-.14.01,0,0-.01,0-.02,0-1.01.1-1.99.14-2.96.14h-.02Z"/>
    <rect class="cls-17" x="558.53" y="361.62" width="55.54" height="0"/>
    <path class="cls-10" d="M697.81,403.6,711.89,405.5c.09,0,.19-.02.28-.03-.09.01-.19.02-.28.03M711.73,405.52s.01,0,.02,0c0,0-.01,0-.02,0M708.66,405.67c-3.95-.01-7.53-.8-10.69-2,3.16,1.21,6.74,1.99,10.69,2M708.75,405.67h.02-.02"/>
    <path class="cls-14" d="M697.8,403.6c-10.44-4.04-16.38-12.64-16.62-12.99,6,7.02,11.74,10.9,16.62,12.99"/>
    <path class="cls-2" d="M558.53,375.01h-160.89c-7.39,0-13.38-5.99-13.38-13.38h8.51c.3.03.62.04.93.04s.61-.01.93-.04h163.91v13.38Z"/>
    <path class="cls-21" d="M393.69,361.67c-.32,0-.63-.01-.93-.04h1.16c.07,0,.13,0,.2,0h.5c-.32.03-.62.04-.93.04"/>
    <path class="cls-23" d="M558.53,361.63h-164.41c-.07,0-.13,0-.2,0h164.61Z"/>
    <path class="cls-24" d="M513.28,127.42c0,5.48-4.44,9.92-9.92,9.92s-9.92-4.44-9.92-9.92,4.44-9.92,9.92-9.92,9.92,4.44,9.92,9.92"/>
    <path class="cls-24" d="M579.68,127.42c0,5.48-4.44,9.92-9.92,9.92s-9.92-4.44-9.92-9.92,4.44-9.92,9.92-9.92,9.92,4.44,9.92,9.92"/>
  </g>
</svg>
