<?xml version="1.0" encoding="UTF-8"?>
<svg id="Layer_1" data-name="Layer 1" xmlns="http://www.w3.org/2000/svg" viewBox="0 0 1080 540.4">
  <defs>
    <style>
      .cls-1 {
        fill: #604247;
      }

      .cls-2 {
        fill: #374a62;
      }

      .cls-3 {
        fill: #425a73;
      }

      .cls-4 {
        fill: #cf9134;
      }

      .cls-5 {
        fill: #8eb9e3;
      }

      .cls-6 {
        fill: #705153;
      }

      .cls-7 {
        fill: #c2583b;
      }

      .cls-8 {
        fill: #53353c;
      }

      .cls-9 {
        fill: #f6b53c;
      }

      .cls-10 {
        fill: #fff;
      }

      .cls-11 {
        fill: #aa6d78;
      }

      .cls-12 {
        fill: #e46943;
      }

      .cls-13 {
        fill: #c5838a;
      }

      .cls-14 {
        fill: #c77d73;
      }

      .cls-15 {
        fill: #7b99cf;
      }

      .cls-16 {
        fill: #a74733;
      }

      .cls-17 {
        fill: #6f80b3;
      }

      .cls-18 {
        fill: #eba1a1;
      }

      .cls-19 {
        fill: #102637;
      }

      .cls-20 {
        fill: #081c2e;
      }
    </style>
  </defs>
  <g id="Engaged">
    <path class="cls-12" d="M1080,539.99v.4H0v-.4C0,241.77,241.77,0,540,0s540,241.77,540,539.99"/>
    <path class="cls-5" d="M749.39,215.71c0,72.73-58.96,131.68-131.68,131.68s-131.69-58.96-131.69-131.68,58.96-131.68,131.69-131.68,131.68,58.95,131.68,131.68"/>
    <rect class="cls-19" x="358.36" y="121.97" width="183.62" height="183.62" transform="translate(-25.06 363.81) rotate(-42.92)"/>
    <rect class="cls-5" x="562.98" y="185.58" width=".2" height="29.29" transform="translate(14.39 437.06) rotate(-42.92)"/>
    <rect class="cls-3" x="404.14" y="248.1" width="183.42" height="29.29" transform="translate(-46.18 408.04) rotate(-42.92)"/>
    <polygon class="cls-3" points="355.94 247.26 348.38 239.14 363.04 225.52 361.96 241.64 355.94 247.26"/>
    <polygon class="cls-14" points="508.66 141.86 482.84 114.1 482.84 114.09 508.66 141.86"/>
    <polyline class="cls-5" points="515.76 149.5 508.66 141.86 508.66 141.86 515.76 149.5"/>
    <polygon class="cls-3" points="375.96 229.7 375.67 213.77 482.84 114.09 508.66 141.86 515.77 149.5 431.59 227.78 419.59 188.98 419.59 188.98 419.59 188.98 375.96 229.7"/>
    <polygon class="cls-14" points="401.36 296.48 397.15 291.96 397.34 291.78 401.55 296.31 401.36 296.48"/>
    <rect class="cls-3" x="374.9" y="228.52" width="183.36" height="6.18" transform="translate(-32.82 379.71) rotate(-42.92)"/>
    <path class="cls-7" d="M617.24,347.39c-3.07,0-6.11-.11-9.12-.32l.02-.02c3.08.22,6.19.34,9.32.34h-.22"/>
    <path class="cls-15" d="M745.67,244.91l-3.9-3.61-1.22-17.38,8.38-7.79c-.03,9.89-1.16,19.52-3.25,28.79M617.47,347.39c-3.14,0-6.24-.12-9.32-.34l95.58-88.89,19.68,18.23-.7.76-70.47,65.54c-11.07,3.05-22.73,4.69-34.77,4.71"/>
    <path class="cls-7" d="M591.79,344.92c-18.88-3.7-36.31-11.43-51.36-22.26l.2-.18c15.01,10.85,32.4,18.62,51.24,22.37l-.07.07Z"/>
    <path class="cls-15" d="M721.85,223.97l-37.72-34.95,45.36-42.19c9.67,15.73,16.13,33.66,18.46,52.85l-12.45,11.58-7.49-6.94-.21,14.1-5.96,5.54ZM591.86,344.86c-18.84-3.75-36.23-11.52-51.24-22.37l142.54-132.56-11.7,38.34,22.93,21.25-102.53,95.35"/>
    <path class="cls-15" d="M663.24,339.13l52.58-48.9,5.97,5.55c-14.93,19.46-35.16,34.63-58.54,43.35"/>
    <path class="cls-10" d="M508.67,141.86c-14.29,21.06-22.64,46.48-22.64,73.84s7.59,50.41,20.68,70.87l73.22-68.1-71.26-76.62Z"/>
    <polygon class="cls-18" points="353.69 301.33 431.79 228.42 419.59 188.98 375.96 229.7 375.5 204.84 363.69 215.87 361.97 241.64 331.4 270.17 353.69 301.33"/>
    <rect class="cls-7" x="354.42" y="247.86" width="1.76" height="0" transform="translate(-69.98 330.38) rotate(-45.88)"/>
    <path class="cls-20" d="M363.04,225.51l.64-9.65,11.81-11.03h0s-11.81,11.03-11.81,11.03l-.64,9.64h0ZM355.94,247.27h0s0,0,0,0"/>
    <path class="cls-2" d="M375.96,229.7h0s43.62-40.73,43.62-40.73h0s-43.63,40.73-43.63,40.73ZM355.94,247.27h0s6.02-5.63,6.02-5.63l1.07-16.13h0s-1.07,16.13-1.07,16.13l-6.03,5.63"/>
    <polygon class="cls-13" points="374.09 269.37 354.66 248.47 355.94 247.27 361.97 241.64 363.04 225.51 363.69 215.87 375.49 204.85 375.96 229.7 375.96 229.7 375.96 229.7 419.59 188.98 428.61 218.15 374.09 269.37"/>
    <polygon class="cls-18" points="152.64 422.31 196.68 401.76 197.27 271.41 152.74 285.88 152.64 422.31"/>
    <path class="cls-18" d="M166.61,395.87v-103.28s36.31-9.09,36.31-9.09l12.16,55.57c1.75,8.02-1.05,16.35-7.29,21.68l-41.17,35.12Z"/>
    <path class="cls-18" d="M204.48,290.76l15.08,26.64c2.76,4.96.06,11.18-5.44,12.56l-10.09,2.53.45-41.73Z"/>
    <path class="cls-19" d="M202.91,283.5l-45.09,11.29,8.06,32.2-18.24,4.57-12.01-47.96s-2.56-12.18,14.12-16.35c12.98-3.25,28.67,3.83,28.67,3.83,0,0-.84-6.08,7.68-8.21,11.21-2.81,13.59,7.81,13.59,7.81l3.21,12.83Z"/>
    <path class="cls-18" d="M161.17,329.27c1.9,6.32-1.69,12.99-8.01,14.89-6.32,1.9-12.99-1.69-14.89-8.01-1.9-6.32,1.69-12.99,8.01-14.89,6.32-1.9,12.99,1.69,14.89,8.01"/>
    <path class="cls-19" d="M193.01,310.98c.3.98-.26,2.03-1.25,2.32-.99.3-2.03-.26-2.32-1.25-.29-.98.26-2.03,1.25-2.32.98-.3,2.02.26,2.32,1.25"/>
    <path class="cls-19" d="M152.88,326.34c-.95-.43-1.94-.63-2.92-.63-2.7,0-5.28,1.55-6.47,4.17-.43.95-.63,1.94-.63,2.92,0,.86.16,1.71.46,2.5l.76-.29c-.27-.7-.4-1.46-.4-2.22,0-.87.18-1.75.56-2.59,1.05-2.32,3.34-3.69,5.73-3.69.87,0,1.75.18,2.59.56l.33-.74Z"/>
    <path class="cls-19" d="M204.19,338.7l-.09.05c-.43.24-2.41,1.22-5.07,1.22-1.52,0-3.26-.32-5.09-1.28l-.35.66c1.94,1.03,3.82,1.37,5.44,1.37,3.25,0,5.51-1.36,5.54-1.38l-.39-.64Z"/>
    <polygon class="cls-13" points="196.77 381.41 183.55 381.41 196.81 370.1 196.82 370.09 196.77 381.41"/>
    <polygon class="cls-13" points="183.55 381.41 183.46 381.41 196.81 370.1 183.55 381.41"/>
    <polygon class="cls-6" points="750.32 301.33 671.46 228.26 683.59 188.52 727.64 229.34 728.02 204.32 739.94 215.37 741.77 241.3 772.63 269.89 750.32 301.33"/>
    <polyline class="cls-7" points="748.92 247.93 746.06 245.27 748.92 247.93"/>
    <path class="cls-15" d="M746.06,245.28l-.39-.36.39.36Z"/>
    <path class="cls-17" d="M745.67,244.91l-3.9-3.61,3.9,3.61Z"/>
    <polygon class="cls-1" points="729.17 270.19 683.12 225.75 691.81 197.95 727.64 229.34 728.02 204.32 739.94 215.37 741.77 241.3 745.67 244.91 746.06 245.28 748.92 247.93 748.5 249.41 729.17 270.19"/>
    <path class="cls-6" d="M951.36,426.07l-36.59-31.5v-.17l-.2-26.55-13.46-12.19-.73-21.55-.94-.28c-4.51-1.33-6.52-6.58-4.07-10.59l14.96-27.5,1.71-3.04c2.48-4.4,7.67-6.51,12.52-5.08l26.7,7.89v12.32s.1,118.24.1,118.24Z"/>
    <path class="cls-19" d="M951.36,426.07l-.1-130.56,7.83,2.31c10.26,3.03,17.44,12.3,17.81,23l2.61,90.63c.39,11.4-10.5,19.83-21.44,16.6l-6.72-1.98Z"/>
    <path class="cls-19" d="M924.56,287.62l26.7,7.89v12.32s.01,15.89.01,15.89c-5.67,2.87-12.4,3.68-18.97,1.73-13.66-4.04-21.47-18.38-17.43-32.05.56-1.88,1.31-3.65,2.23-5.29,2.29-1.01,4.92-1.24,7.46-.49"/>
    <path class="cls-6" d="M941.15,326.37c-1.55,5.25,1.45,10.76,6.7,12.31,5.25,1.55,10.76-1.45,12.31-6.69,1.55-5.25-1.45-10.76-6.7-12.31-5.25-1.55-10.76,1.45-12.31,6.7"/>
    <path class="cls-12" d="M949.19,337.16c-.47,1.58-2.12,2.48-3.7,2.01-1.58-.47-2.48-2.12-2.01-3.7.47-1.58,2.12-2.48,3.7-2.01,1.58.47,2.48,2.12,2.01,3.7"/>
    <path class="cls-19" d="M912.89,322.3c.3.98-.26,2.03-1.25,2.32-.99.3-2.03-.26-2.32-1.25-.29-.98.26-2.03,1.25-2.32.98-.3,2.02.26,2.32,1.25"/>
    <path class="cls-19" d="M919.67,345.75l-.09.05c-.43.24-2.41,1.22-5.07,1.22-1.52,0-3.26-.32-5.09-1.28l-.35.66c1.95,1.03,3.82,1.37,5.44,1.37,3.25,0,5.51-1.36,5.54-1.38l-.39-.64Z"/>
    <polygon class="cls-18" points="951.32 423.01 950.65 539.64 904.95 539.64 904.62 538.46 858.58 538.46 858.58 423.01 712.99 287.6 755.99 241.35 951.31 423 951.3 423.01 951.32 423.01"/>
    <path class="cls-19" d="M955.89,331.08c.28-.68.41-1.38.41-2.07,0-2.17-1.29-4.22-3.42-5.09-.68-.28-1.38-.41-2.07-.41-.74,0-1.46.15-2.13.43l.24.58c.59-.25,1.24-.38,1.89-.38.61,0,1.23.12,1.83.36,1.89.77,3.03,2.59,3.03,4.51,0,.61-.12,1.23-.36,1.83l.58.24Z"/>
    <polygon class="cls-9" points="391.04 287.6 245.45 423.01 245.45 538.46 199.42 538.46 199.08 539.64 152.72 539.64 152.72 423.01 152.73 423.01 152.72 423 348.03 241.35 391.04 287.6"/>
    <path class="cls-7" d="M749.43,248.4h0l2.84-3.06-2.84,3.06ZM914.73,388.98l-158.74-147.63h0s158.74,147.63,158.74,147.63M950.65,539.64h-63.38l-.03-1.18h17.38l.34,1.18h45.7"/>
    <path class="cls-1" d="M748.5,249.41h0l.94-1.01-.94,1.01ZM727.49,272h0l1.68-1.81-1.68,1.81"/>
    <polygon class="cls-8" points="729.17 270.19 729.17 270.19 748.5 249.41 729.17 270.19"/>
    <path class="cls-1" d="M951.31,423l-36.58-34.02h0s36.58,34.02,36.58,34.02h0ZM951.31,423.01h-.01.01s0,0,0,0"/>
    <polyline class="cls-13" points="950.65 539.64 904.95 539.64 904.62 538.46 887.24 538.46 883.92 418.53 727.49 272 729.17 270.19 748.5 249.41 749.43 248.4 752.27 245.35 755.99 241.35 914.73 388.98 951.31 423 951.3 423.01 951.31 423.01 950.65 539.64"/>
    <path class="cls-7" d="M354.65,248.47l-6.62-7.12-1.65,1.53,1.65-1.54,6.62,7.12h0ZM212.34,539.64h-59.63v-116.64h0s0,0,0,0h-.01v116.64h46.36l.33-1.18h12.92v1.18"/>
    <polyline class="cls-13" points="374.09 269.37 374.09 269.37 374.09 269.37 374.09 269.37"/>
    <polygon class="cls-16" points="354.65 248.47 354.65 248.47 354.65 248.46 354.65 248.47"/>
    <polygon class="cls-11" points="374.09 269.37 354.65 248.47 354.66 248.47 374.09 269.37"/>
    <polygon class="cls-4" points="199.08 539.64 152.72 539.64 152.72 423.01 152.73 423.01 152.72 423 346.38 242.88 348.03 241.35 354.65 248.46 354.65 248.47 374.09 269.37 374.09 269.37 212.34 421.56 212.34 538.46 199.41 538.46 199.08 539.64"/>
    <polygon class="cls-7" points="914.66 379.58 914.6 379.58 914.6 371.13 914.66 379.58"/>
    <polygon class="cls-1" points="927.66 379.58 914.66 379.58 914.6 371.13 914.6 367.75 927.66 379.58"/>
  </g>
</svg>
