<?xml version="1.0" encoding="UTF-8"?>
<svg id="Layer_1" data-name="Layer 1" xmlns="http://www.w3.org/2000/svg" xmlns:xlink="http://www.w3.org/1999/xlink" viewBox="0 0 200 200">
  <defs>
    <style>
      .cls-1 { fill: none; }
      .cls-2 { fill: #a24431; }
      .cls-3 { fill: #ad722c; }
      .cls-4 { fill: #a56975; }
      .cls-5 { fill: #360030; }
      .cls-6 { fill: #f6b53c; }
      .cls-7 { fill: #031127; }
      .cls-8 { fill: #2b002d; }
      .cls-9 { fill: #500f47; }
      .cls-10 { fill: #e46943; }
      .cls-11 { fill: #7c481d; }
      .cls-12 { fill: #c5838a; }
      .cls-13 { fill: #3f1141; }
      .cls-14 { fill: #eba1a1; }
      .cls-15 { fill: #102637; }
      .cls-16 { clip-path: url(#clippath-p4); }
    </style>
    <clipPath id="clippath-p4">
      <rect class="cls-1" width="200" height="200"/>
    </clipPath>
  </defs>
  <g class="cls-16">
    <g id="Guidance">
      <path class="cls-9" d="M294.56,126.34c0,96.67-78.37,175.04-175.04,175.04S-55.52,223.01-55.52,126.34,22.85-48.7,119.52-48.7,294.56,29.67,294.56,126.34"/>
      <path class="cls-13" d="M58.35,129.86L-.16-1.4c6.68-6.26,13.84-12,21.44-17.16l37.14,83.31,15.76,43.7c-2.2,1.11-4.53,2.68-6.73,4.88v.02c-2.65,2.69-4.7,5.96-5.96,9.54v.02s-3.14,6.95-3.14,6.95Z"/>
      <path class="cls-13" d="M41.75,166.65L-22.09,23.43c2.94-4.04,6.05-7.95,9.32-11.72l61.84,138.72-7.32,16.22ZM79.98,252.41l-24.87-55.8,7.33-16.19,24.29,54.5-2.15,5.53h.02l-.05.12h0,0s-4.58,11.83-4.58,11.83"/>
      <path class="cls-13" d="M237.6,105.97h-14.54L155.78-44.94c3.19.67,6.35,1.43,9.48,2.28,2.35.64,4.68,1.33,7,2.07l65.34,146.56ZM270.88,213.25l-33.77-75.76h14.54l26.99,60.55c-2.32,5.17-4.91,10.25-7.76,15.21"/>
      <path class="cls-13" d="M114.89,105.97h-2.27s-9.3-24.16-9.3-24.16h4.29c4.77,0,8.04-4.81,6.29-9.24l-3.06-7.75h5.77c2.52,0,3.94-2.9,2.39-4.89l-20.53-26.39h-31.88l-27.87-62.52c17.98-9.37,37.79-15.72,58.75-18.35l68.34,153.3h-50.91ZM203.08,279.74l-14.02-36.05h.14s-.47-1.22-.47-1.22h0l-.05-.12-.82-2.11-3.47-8.66-1.23-3.07-.65-1.68h-.02l-5.05-12.59h-.15l-11.56-28.52-19.82-48.24h33.95l53.88,120.87c-9.59,8.34-19.88,15.47-30.65,21.38"/>
      <path class="cls-15" d="M74.47,33.55h-14.27c-6.35,0-10.77,6.3-8.62,12.27l24.5,67.93h28.55l-30.17-80.2Z"/>
      <polygon class="cls-9" points="61.47 123.01 .87 257.28 27.64 257.28 80.71 140.05 61.47 123.01"/>
      <path class="cls-9" d="M61.77,140.46l30.7,79.73-7.9,20.39,103.29-.34-10.43-25.99h-69.5l-35.73-93.41c-2.04-5.32.35-10.92,4.85-13.47-12.99,4.52-20.62,19.24-15.29,33.08"/>
      <polygon class="cls-6" points="61.47 123.01 .87 257.28 27.64 257.28 80.71 140.05 61.47 123.01"/>
      <path class="cls-6" d="M187.82,240.24l-46.51.15-56.74.19,7.9-20.39-30.7-79.73c-5.34-13.85,2.29-28.56,15.29-33.08,2.6-.9,5.42-1.41,8.39-1.41h29.45c10.93,0,20.77,6.6,24.92,16.71l25.9,63.05,11.56,28.52,10.54,25.99Z"/>
      <path class="cls-14" d="M66.87,54.07l20.01,51.91h25.74l-9.3-24.16h4.29c4.77,0,8.04-4.81,6.29-9.24l-3.06-7.75h5.77c2.52,0,3.94-2.9,2.39-4.89l-20.53-26.39h-26.65c-6.19,0-7.18,14.74-4.95,20.52"/>
      <path class="cls-15" d="M71.81,33.55h26.64c-1.22,15.07-13.66,26.97-28.96,27.33l-5.91-15.33c-2.23-5.78,2.04-12,8.23-12"/>
      <path class="cls-14" d="M63.41,58.07c0,3.73,3.03,6.76,6.76,6.76s6.76-3.03,6.76-6.76-3.02-6.76-6.76-6.76-6.76,3.03-6.76,6.76"/>
      <path class="cls-15" d="M71.61,54.87c-.47-.21-.96-.31-1.44-.31-1.33,0-2.61.77-3.19,2.06-.21.47-.31.96-.31,1.44,0,.43.08.84.23,1.24l.37-.14c-.13-.35-.2-.72-.2-1.1,0-.43.09-.86.28-1.28.52-1.15,1.65-1.82,2.83-1.82.43,0,.86.09,1.28.28l.17-.36Z"/>
      <path class="cls-10" d="M71.16,63.62c0,1.36,1.1,2.46,2.46,2.46s2.46-1.1,2.46-2.46-1.1-2.46-2.46-2.46-2.46,1.1-2.46,2.46"/>
      <path class="cls-15" d="M108.6,70.71l-.07.04c-.33.18-1.86.95-3.92.95-1.18,0-2.53-.25-3.94-.99l-.27.51c1.51.79,2.96,1.06,4.21,1.06,2.52,0,4.26-1.05,4.29-1.07l-.3-.5Z"/>
      <path class="cls-15" d="M99.26,51.64c0,.71.57,1.28,1.28,1.28s1.27-.57,1.27-1.28-.57-1.28-1.27-1.28-1.28.57-1.28,1.28"/>
      <polygon class="cls-6" points="114.89 105.97 278.27 105.97 278.27 137.49 137.54 137.49 114.89 105.97"/>
      <polygon class="cls-3" points="278.27 137.49 278.27 137.49 145.78 137.39 140.77 126.58 278.18 126.58 278.2 128.22 278.27 128.22 278.27 137.49"/>
      <polygon class="cls-12" points="108.22 94.57 88.87 81.82 103.32 81.82 108.22 94.57"/>
      <path class="cls-14" d="M114.89,105.97l-30.51-.13s3.3,9.7,17.15,9.7,13.36-9.57,13.36-9.57"/>
      <path class="cls-10" d="M112.13,112.27l45.32,127.85h-22.96l-42.83-126.71s4.89,2.37,10.6,2.13c7.46-.3,9.86-3.27,9.86-3.27"/>
      <path class="cls-5" d="M68.15,112.77c1.79-1.68,3.83-3.1,6.07-4.21.91-.45,1.86-.85,2.84-1.19,0,0,0,0,0,0-3.37,1.17-6.38,3.04-8.9,5.39"/>
      <path class="cls-3" d="M84.61,240.45l2.13-5.51,2.58-6.65.98-2.52,2.16-5.59v-.03s.02-.09.02-.09l-22.07-57.33-.04.08v-.02s0-.04,0-.04l-2.97-8.71-.23.49-5.42-14.08c-2.29-5.94-2.19-12.05-.31-17.43.16-.46.33-.91.52-1.36,1.4-3.36,3.51-6.41,6.17-8.9,2.52-2.36,5.53-4.22,8.9-5.39h0c2.31-.8,4.79-1.29,7.39-1.39.32.81,2.13,4.87,7.23,7.43l42.82,126.7h12.35l-54.25.29-.08-.03v.03s-7.9.04-7.9.04Z"/>
      <path class="cls-4" d="M101.54,115.54c-.64,0-1.25-.02-1.84-.06-4.54-.38-8.03-2.07-8.03-2.07h0c-5.09-2.55-6.9-6.61-7.23-7.42-.04-.09-.05-.14-.05-.14h.08c3.53,8.15,11.76,9.53,16.95,9.53,2.67,0,4.53-.37,4.53-.37l.04.11s-.04,0-.06.01l-.03-.09.03.09c-.9.17-1.92.31-3.06.38-.43.02-.87.03-1.33.03"/>
      <path class="cls-2" d="M147.46,240.12l-41.54-124.98s.04,0,.06-.01l32.92,99.01,8.66,25.99h-.1ZM146.84,240.12h-12.35l-42.82-126.7h0s3.5,1.68,8.03,2.06c.58.05,1.17.08,1.77.08.26,0,.53,0,.8-.02.2,0,.4-.02.6-.03,1.14-.07,2.16-.21,3.06-.38l41.54,124.98h-.62"/>
      <polygon class="cls-11" points="20.11 257.19 67.19 154.54 70.37 162.79 54.33 198.26 27.67 257.15 20.11 257.19"/>
    </g>
  </g>
</svg>
