<?xml version="1.0" encoding="UTF-8"?>
<svg id="Layer_1" data-name="Layer 1" xmlns="http://www.w3.org/2000/svg" xmlns:xlink="http://www.w3.org/1999/xlink" viewBox="0 0 200 200">
  <defs>
    <style>
      .cls-1 { fill: none; }
      .cls-2 { fill: #cf9134; }
      .cls-3 { fill: #f6b53c; }
      .cls-4 { fill: #e46943; }
      .cls-5 { fill: #c5838a; }
      .cls-6 { fill: #eba1a1; }
      .cls-7 { fill: #102637; }
      .cls-8 { clip-path: url(#clippath-p6); }
    </style>
    <clipPath id="clippath-p6">
      <rect class="cls-1" width="200" height="200"/>
    </clipPath>
  </defs>
  <g class="cls-8">
    <rect class="cls-4" width="200" height="200"/>
    <g>
      <polygon class="cls-6" points="64.34 161.45 98.63 145.45 99.08 43.97 64.41 55.24 64.34 161.45"/>
      <path class="cls-6" d="M75.21,140.86V60.46s28.27-7.08,28.27-7.08l9.47,43.26c1.37,6.24-.82,12.73-5.68,16.88l-32.05,27.34Z"/>
      <path class="cls-6" d="M104.7,59.03l11.74,20.74c2.15,3.86.04,8.71-4.24,9.78l-7.85,1.97.35-32.49Z"/>
      <path class="cls-7" d="M103.48,53.38l-35.1,8.79,6.28,25.07-14.2,3.56-9.35-37.34s-1.99-9.48,11-12.73c10.11-2.53,22.32,2.98,22.32,2.98,0,0-.65-4.73,5.98-6.39,8.73-2.19,10.58,6.08,10.58,6.08l2.5,9.99Z"/>
      <path class="cls-6" d="M70.98,89.02c1.48,4.92-1.32,10.11-6.24,11.59-4.92,1.48-10.11-1.32-11.59-6.24-1.48-4.92,1.32-10.11,6.24-11.59,4.92-1.48,10.11,1.32,11.59,6.24"/>
      <path class="cls-7" d="M95.77,74.78c.23.77-.21,1.58-.97,1.81-.77.23-1.58-.2-1.81-.97-.23-.77.21-1.58.97-1.81.77-.23,1.58.21,1.81.97"/>
      <path class="cls-7" d="M64.53,86.74c-.74-.33-1.51-.49-2.27-.49-2.1,0-4.11,1.21-5.03,3.24-.34.74-.49,1.51-.49,2.28,0,.67.12,1.33.35,1.95l.59-.22c-.21-.55-.31-1.13-.31-1.73,0-.68.14-1.36.44-2.01.82-1.81,2.6-2.87,4.46-2.87.67,0,1.36.14,2.01.44l.26-.57Z"/>
      <path class="cls-7" d="M104.48,96.36l-.07.04c-.34.18-1.87.95-3.94.95-1.18,0-2.54-.25-3.97-1l-.27.51c1.51.8,2.97,1.07,4.24,1.07,2.53,0,4.29-1.06,4.31-1.07l-.3-.5Z"/>
      <polygon class="cls-5" points="98.7 129.61 88.4 129.61 98.72 120.81 98.74 120.8 98.7 129.61"/>
      <polygon class="cls-3" points="249.95 56.57 136.59 161.99 136.59 251.88 100.76 251.88 100.49 252.8 64.4 252.8 64.4 161.99 64.41 161.99 64.4 161.98 216.46 20.56 249.95 56.57"/>
      <polygon class="cls-2" points="100.49 252.8 64.4 252.8 64.4 161.99 64.41 161.99 64.4 161.99 215.18 21.76 216.46 20.56 221.61 26.1 221.61 26.11 236.75 42.38 236.75 42.38 110.82 160.87 110.82 251.88 100.75 251.88 100.49 252.8"/>
    </g>
  </g>
</svg>
