<?xml version="1.0" encoding="UTF-8"?>
<svg id="Layer_1" data-name="Layer 1" xmlns="http://www.w3.org/2000/svg" xmlns:xlink="http://www.w3.org/1999/xlink" viewBox="0 0 1000 325.43">
  <defs>
    <style>
      .cls-1 {
        fill: none;
      }

      .cls-2 {
        fill: #9ac4fa;
      }

      .cls-3 {
        clip-path: url(#clippath);
      }
    </style>
    <clipPath id="clippath">
      <rect class="cls-1" x="302.22" y="207.45" width="697.78" height="117.98"/>
    </clipPath>
  </defs>
  <g class="cls-3">
    <g>
      <path class="cls-2" d="M309.36,298.67v-40.64c0-3.69.86-6.27,2.58-7.77,1.74-1.51,4.17-2.26,7.29-2.26h8.82v8.14h-8.32v42.53h-10.38ZM304.78,270.15v-7.19h23.1v7.19h-23.1Z"/>
      <path class="cls-2" d="M349.41,299.46c-4.1,0-7.51-.79-10.24-2.37-2.74-1.59-4.79-3.77-6.16-6.5-1.36-2.74-2.03-5.86-2.03-9.38s.67-6.74,2.03-9.48c1.37-2.74,3.42-4.9,6.16-6.48,2.74-1.58,6.15-2.37,10.24-2.37,5.98,0,10.53,1.68,13.64,5.03,3.12,3.34,4.69,7.77,4.69,13.3,0,3.46-.67,6.56-2,9.3-1.32,2.74-3.34,4.92-6.06,6.53-2.71,1.61-6.13,2.42-10.27,2.42ZM349.41,290.72c2.35,0,4.11-.48,5.29-1.45,1.19-.98,1.99-2.24,2.4-3.77.4-1.54.61-3.09.61-4.64s-.2-3.19-.61-4.71c-.41-1.53-1.2-2.79-2.4-3.79-1.18-1.01-2.94-1.53-5.29-1.53s-4.16.51-5.37,1.53c-1.21,1-2.02,2.26-2.42,3.79-.41,1.53-.61,3.1-.61,4.71s.2,3.09.61,4.64c.4,1.53,1.21,2.78,2.42,3.77,1.21.97,3,1.45,5.37,1.45Z"/>
      <path class="cls-2" d="M373.8,298.59v-35.63h9.85l.68,10.38-.08,7.69v17.57h-10.46ZM384.25,283.79l-.26-7.95c0-1.14.22-2.45.66-3.92.43-1.47,1.16-2.88,2.16-4.24,1.01-1.35,2.43-2.48,4.24-3.37,1.8-.9,4.04-1.34,6.69-1.34h1.05v11.59h-1.13c-2.3,0-4.31.13-6,.4-1.71.26-3.09.74-4.16,1.42-1.05.68-1.86,1.63-2.42,2.84-.55,1.21-.82,2.74-.82,4.58Z"/>
      <path class="cls-2" d="M443.49,299.54c-2.71,0-5.37-.32-8.01-.95-2.62-.63-4.96-1.64-7.03-3.03-2.07-1.38-3.75-3.19-5.03-5.4-1.26-2.23-1.9-4.87-1.9-7.93h10.46c0,.23.06.65.18,1.26.12.6.42,1.28.9,2.03.49.76,1.17,1.49,2.03,2.19.88.68,2.06,1.26,3.56,1.71,1.51.46,3.38.68,5.64.68,1.26,0,2.43-.11,3.5-.34,1.07-.22,2-.54,2.79-.95.8-.4,1.43-.92,1.87-1.55.43-.63.66-1.32.66-2.08,0-1.44-.57-2.57-1.69-3.4-1.13-.84-2.61-1.51-4.45-2-1.84-.49-3.88-.98-6.11-1.47-2.21-.49-4.41-1.08-6.58-1.76-2.16-.7-4.13-1.62-5.93-2.77-1.78-1.16-3.15-2.66-4.13-4.5-.99-1.84-1.42-4.15-1.29-6.93.22-2.77,1.19-5.15,2.9-7.14,1.7-1.98,4.09-3.51,7.16-4.58,3.09-1.07,6.74-1.61,10.96-1.61,3.51,0,6.79.63,9.85,1.87,3.05,1.23,5.53,3.12,7.43,5.66,1.91,2.53,2.87,5.73,2.87,9.61h-10.11c0-1.56-.38-2.82-1.13-3.77-.76-.96-1.72-1.7-2.9-2.21-1.18-.53-2.42-.88-3.71-1.08-1.3-.21-2.44-.32-3.42-.32-2.55,0-4.65.38-6.29,1.13-1.63.76-2.45,1.99-2.45,3.71,0,1.51.58,2.69,1.74,3.53,1.16.83,2.66,1.5,4.5,2.03,1.84.51,3.88.99,6.14,1.42,2.25.42,4.48.97,6.69,1.63,2.23.67,4.23,1.55,6,2.66,1.79,1.09,3.2,2.54,4.24,4.35,1.05,1.81,1.46,4.16,1.24,7.06-.13,2.76-1.11,5.12-2.95,7.08-1.84,1.97-4.31,3.49-7.4,4.56-3.09,1.05-6.68,1.58-10.77,1.58Z"/>
      <path class="cls-2" d="M471.68,298.59v-35.63h10.11v7.08h.18c.05-.11.26-.51.63-1.24.38-.72.96-1.53,1.74-2.45.79-.93,1.82-1.72,3.11-2.4,1.3-.66,2.9-1,4.82-1s3.37.34,4.58,1c1.21.67,2.19,1.54,2.92,2.61.75,1.05,1.33,2.21,1.74,3.48h.18c0-.17.21-.62.63-1.34.43-.72,1.07-1.51,1.9-2.4.84-.9,1.96-1.67,3.34-2.34,1.38-.66,3.06-1,5.03-1,2.25,0,4.1.47,5.56,1.4,1.47.92,2.66,2.13,3.56,3.66s1.55,3.13,1.98,4.82c.43,1.67.72,3.27.87,4.79.16,1.53.24,2.78.24,3.74v17.22h-10.14v-17.3c0-.86-.05-1.8-.13-2.84-.07-1.03-.28-2.04-.61-3.03-.32-.98-.86-1.77-1.61-2.37-.74-.61-1.8-.92-3.19-.92-1.67,0-2.94.47-3.82,1.42-.86.95-1.41,2.15-1.63,3.61-.23,1.44-.34,2.91-.34,4.4v17.04h-10.19v-17.3c0-.86-.04-1.8-.11-2.84-.05-1.03-.26-2.04-.61-3.03-.34-.98-.88-1.77-1.63-2.37-.76-.61-1.83-.92-3.21-.92-1.67,0-2.92.47-3.77,1.42-.83.95-1.37,2.15-1.63,3.61-.26,1.44-.4,2.91-.4,4.4v17.04h-10.11Z"/>
      <path class="cls-2" d="M543.21,299.46c-3.23,0-5.83-.75-7.8-2.24-1.95-1.51-3.36-3.61-4.24-6.32-.86-2.72-1.29-5.93-1.29-9.61s.45-6.91,1.34-9.67c.9-2.77,2.3-4.92,4.24-6.45,1.93-1.53,4.51-2.29,7.74-2.29,2.19,0,4.01.31,5.45.92,1.44.6,2.57,1.33,3.4,2.19.84.86,1.46,1.65,1.87,2.37.4.72.66,1.17.79,1.34h.16v-6.74h10.74v35.63h-9.09l-1.66-5.37h-.16c-.07.25-.33.7-.76,1.37-.42.65-1.07,1.36-1.92,2.11-.86.74-2.02,1.38-3.48,1.92-1.44.56-3.23.84-5.35.84ZM547.53,290.72c2.07,0,3.62-.41,4.66-1.24,1.05-.84,1.74-1.98,2.08-3.42.35-1.44.53-3,.53-4.69s-.18-3.3-.53-4.74c-.34-1.44-1.03-2.56-2.08-3.37-1.04-.8-2.59-1.21-4.66-1.21s-3.65.43-4.71,1.29c-1.07.86-1.78,2-2.13,3.42-.34,1.41-.5,2.94-.5,4.61s.16,3.24.5,4.66c.35,1.41,1.06,2.54,2.13,3.4,1.07.86,2.64,1.29,4.71,1.29Z"/>
      <path class="cls-2" d="M572.43,298.59v-48.69h10.14v48.69h-10.14Z"/>
      <path class="cls-2" d="M590.68,298.59v-48.69h10.14v48.69h-10.14Z"/>
      <path class="cls-2" d="M627.52,298.59v-48.69h20.07c1.32,0,2.8.07,4.48.18,1.69.11,3.4.36,5.16.76,1.75.41,3.37,1.07,4.85,2,1.47.92,2.67,2.17,3.58,3.77.93,1.58,1.4,3.61,1.4,6.08,0,1.84-.38,3.57-1.13,5.16-.76,1.58-2.08,2.86-3.98,3.84-1.9.99-4.69,1.59-8.37,1.82v.34c4.19.05,7.43.62,9.72,1.69,2.28,1.07,3.87,2.44,4.77,4.11.9,1.67,1.34,3.6,1.34,5.79,0,2.53-.49,4.64-1.47,6.32-.99,1.67-2.28,2.97-3.9,3.9-1.62.92-3.38,1.57-5.29,1.98-1.9.41-3.81.67-5.74.79-1.94.11-3.65.16-5.14.16h-20.33ZM637.82,290.19h9.09c2.07,0,3.98-.09,5.74-.29,1.75-.21,3.19-.75,4.32-1.63,1.12-.9,1.69-2.35,1.69-4.37s-.57-3.57-1.69-4.45c-1.13-.9-2.6-1.46-4.42-1.69-1.81-.24-3.78-.37-5.9-.37h-8.82v12.8ZM637.74,269.62h8.56c1.77,0,3.45-.09,5.03-.29,1.59-.21,2.9-.7,3.9-1.47,1.01-.79,1.53-2.11,1.53-3.95s-.49-3.15-1.47-3.92c-.99-.79-2.26-1.25-3.84-1.4-1.58-.14-3.29-.21-5.14-.21h-8.56v11.25Z"/>
      <path class="cls-2" d="M687.55,299.46c-2.55,0-4.61-.43-6.19-1.29-1.58-.88-2.81-2-3.69-3.37-.86-1.38-1.47-2.91-1.82-4.58-.34-1.69-.55-3.33-.63-4.95-.09-1.61-.13-3.05-.13-4.32v-17.99h10.19v18.07c0,1.51.14,2.98.42,4.4.3,1.41.92,2.57,1.87,3.5.96.92,2.51,1.37,4.64,1.37s3.59-.45,4.58-1.37c.98-.93,1.61-2.09,1.9-3.5.3-1.42.47-2.82.53-4.21v-18.25h10.72v35.63h-8.98l-1.74-6.22h-.18c-.05.16-.28.62-.66,1.37-.37.76-.99,1.57-1.84,2.42-.86.86-2.03,1.63-3.5,2.29s-3.31,1-5.48,1Z"/>
      <path class="cls-2" d="M731.66,299.46c-.81,0-1.91-.11-3.29-.32-1.39-.2-2.84-.56-4.37-1.11-1.53-.56-2.99-1.34-4.37-2.34-1.39-1-2.5-2.28-3.34-3.84-.83-1.56-1.24-3.46-1.24-5.71h9.61c0,.05.03.39.08,1,.05.6.26,1.26.63,1.98.38.72,1.03,1.37,1.95,1.95.93.58,2.29.87,4.08.87,1.38,0,2.48-.18,3.29-.55.8-.38,1.38-.83,1.71-1.34.35-.53.5-1.01.45-1.47,0-1.09-.51-1.93-1.53-2.53-1-.61-2.31-1.15-3.92-1.61-1.62-.47-3.34-.96-5.16-1.47-1.81-.53-3.52-1.2-5.14-2.03-1.62-.84-2.94-1.96-3.95-3.37-1-1.42-1.47-3.28-1.42-5.58,0-3.48,1.34-6.04,4.03-7.72,2.69-1.67,6.1-2.5,10.24-2.5,2.37,0,4.56.28,6.58.82,2.01.55,3.8,1.37,5.35,2.48,1.56,1.09,2.77,2.5,3.63,4.24.88,1.72,1.34,3.74,1.4,6.06h-9.51c.05-1.16-.14-2.11-.58-2.84-.42-.75-.99-1.33-1.69-1.74-.68-.4-1.45-.7-2.29-.9-.83-.21-1.68-.32-2.55-.32-1.84,0-3.15.34-3.92,1-.78.65-1.16,1.38-1.16,2.19,0,1.21.51,2.15,1.55,2.82,1.03.67,2.36,1.23,3.98,1.69,1.61.46,3.35.95,5.21,1.47,1.88.51,3.62,1.17,5.24,1.98,1.61.81,2.94,1.9,3.98,3.27,1.03,1.36,1.55,3.12,1.55,5.29s-.63,4.13-1.87,5.64c-1.23,1.49-2.97,2.63-5.21,3.42-2.25.77-4.92,1.16-8.03,1.16Z"/>
      <path class="cls-2" d="M753.45,298.59v-35.63h10.46v35.63h-10.46ZM758.64,258.72c-2.2,0-3.67-.56-4.42-1.69-.76-1.12-1.13-2.4-1.13-3.84s.38-2.62,1.13-3.71c.75-1.11,2.23-1.66,4.42-1.66s3.61.55,4.29,1.66c.7,1.09,1.05,2.33,1.05,3.71s-.36,2.73-1.05,3.84c-.68,1.13-2.12,1.69-4.29,1.69Z"/>
      <path class="cls-2" d="M770.99,298.59v-35.63h9.01l1.71,7.08h.18c.05-.05.25-.45.61-1.19.35-.75.93-1.58,1.76-2.48.84-.9,2.01-1.69,3.5-2.37,1.51-.7,3.41-1.05,5.71-1.05,2.54,0,4.62.44,6.22,1.32,1.61.86,2.85,1.99,3.71,3.4.88,1.41,1.47,2.95,1.79,4.64.32,1.67.5,3.31.55,4.9.07,1.58.11,2.97.11,4.16v17.22h-10.14v-17.3c0-1.54-.14-3.01-.42-4.4-.28-1.38-.91-2.53-1.87-3.42-.95-.9-2.49-1.34-4.61-1.34s-3.62.47-4.64,1.4c-1,.92-1.67,2.08-2,3.5-.32,1.41-.47,2.92-.47,4.53v17.04h-10.72Z"/>
      <path class="cls-2" d="M829.11,299.46c-4.21,0-7.64-.86-10.27-2.58-2.62-1.74-4.53-3.98-5.74-6.74-1.21-2.77-1.87-5.66-1.98-8.66-.05-3.75.64-7.04,2.08-9.88,1.44-2.82,3.49-5.01,6.16-6.56,2.69-1.56,5.82-2.34,9.4-2.34,3.28,0,6.22.7,8.8,2.08,2.59,1.39,4.64,3.36,6.14,5.93,1.51,2.57,2.3,5.6,2.37,9.11v2.26h-25.02c0,2.94.7,5.12,2.11,6.56,1.42,1.44,3.32,2.16,5.69,2.16,1.96,0,3.56-.45,4.79-1.37,1.24-.93,1.98-2.14,2.21-3.63h10.11c-.23,2.48-1.01,4.77-2.34,6.87-1.32,2.11-3.19,3.77-5.61,4.98-2.42,1.21-5.39,1.82-8.9,1.82ZM821.24,277.65h14.35c0-.22-.07-.68-.18-1.37-.11-.7-.39-1.44-.84-2.21-.46-.77-1.17-1.45-2.13-2.03-.95-.58-2.26-.87-3.92-.87s-2.92.26-3.9.79c-.99.51-1.71,1.16-2.16,1.95-.46.78-.78,1.52-.95,2.24-.18.72-.26,1.22-.26,1.5Z"/>
      <path class="cls-2" d="M868.3,299.46c-.81,0-1.91-.11-3.29-.32-1.39-.2-2.84-.56-4.37-1.11-1.53-.56-2.99-1.34-4.37-2.34-1.39-1-2.5-2.28-3.34-3.84-.83-1.56-1.24-3.46-1.24-5.71h9.61c0,.05.03.39.08,1,.05.6.26,1.26.63,1.98.38.72,1.03,1.37,1.95,1.95.93.58,2.29.87,4.08.87,1.38,0,2.48-.18,3.29-.55.8-.38,1.38-.83,1.71-1.34.35-.53.5-1.01.45-1.47,0-1.09-.51-1.93-1.53-2.53-1-.61-2.31-1.15-3.92-1.61-1.62-.47-3.34-.96-5.16-1.47-1.81-.53-3.52-1.2-5.14-2.03-1.62-.84-2.94-1.96-3.95-3.37-1-1.42-1.47-3.28-1.42-5.58,0-3.48,1.34-6.04,4.03-7.72,2.69-1.67,6.1-2.5,10.24-2.5,2.37,0,4.56.28,6.58.82,2.01.55,3.8,1.37,5.35,2.48,1.56,1.09,2.77,2.5,3.63,4.24.88,1.72,1.34,3.74,1.4,6.06h-9.51c.05-1.16-.14-2.11-.58-2.84-.42-.75-.99-1.33-1.69-1.74-.68-.4-1.45-.7-2.29-.9-.83-.21-1.68-.32-2.55-.32-1.84,0-3.15.34-3.92,1-.78.65-1.16,1.38-1.16,2.19,0,1.21.51,2.15,1.55,2.82,1.03.67,2.36,1.23,3.98,1.69,1.61.46,3.35.95,5.21,1.47,1.88.51,3.62,1.17,5.24,1.98,1.61.81,2.94,1.9,3.98,3.27,1.03,1.36,1.55,3.12,1.55,5.29s-.63,4.13-1.87,5.64c-1.23,1.49-2.97,2.63-5.21,3.42-2.25.77-4.92,1.16-8.03,1.16Z"/>
      <path class="cls-2" d="M903.67,299.46c-.81,0-1.91-.11-3.29-.32-1.39-.2-2.84-.56-4.37-1.11-1.53-.56-2.99-1.34-4.37-2.34-1.39-1-2.5-2.28-3.34-3.84-.83-1.56-1.24-3.46-1.24-5.71h9.61c0,.05.03.39.08,1,.05.6.26,1.26.63,1.98.38.72,1.03,1.37,1.95,1.95.93.58,2.29.87,4.08.87,1.38,0,2.48-.18,3.29-.55.8-.38,1.38-.83,1.71-1.34.35-.53.5-1.01.45-1.47,0-1.09-.51-1.93-1.53-2.53-1-.61-2.31-1.15-3.92-1.61-1.62-.47-3.34-.96-5.16-1.47-1.81-.53-3.52-1.2-5.14-2.03-1.62-.84-2.94-1.96-3.95-3.37-1-1.42-1.47-3.28-1.42-5.58,0-3.48,1.34-6.04,4.03-7.72,2.69-1.67,6.1-2.5,10.24-2.5,2.37,0,4.56.28,6.58.82,2.01.55,3.8,1.37,5.35,2.48,1.56,1.09,2.77,2.5,3.63,4.24.88,1.72,1.34,3.74,1.4,6.06h-9.51c.05-1.16-.14-2.11-.58-2.84-.42-.75-.99-1.33-1.69-1.74-.68-.4-1.45-.7-2.29-.9-.83-.21-1.68-.32-2.55-.32-1.84,0-3.15.34-3.92,1-.78.65-1.16,1.38-1.16,2.19,0,1.21.51,2.15,1.55,2.82,1.03.67,2.36,1.23,3.98,1.69,1.61.46,3.35.95,5.21,1.47,1.88.51,3.62,1.17,5.24,1.98,1.61.81,2.94,1.9,3.98,3.27,1.03,1.36,1.55,3.12,1.55,5.29s-.63,4.13-1.87,5.64c-1.23,1.49-2.97,2.63-5.21,3.42-2.25.77-4.92,1.16-8.03,1.16Z"/>
      <path class="cls-2" d="M941.37,299.46c-4.21,0-7.64-.86-10.27-2.58-2.62-1.74-4.53-3.98-5.74-6.74-1.21-2.77-1.87-5.66-1.98-8.66-.05-3.75.64-7.04,2.08-9.88,1.44-2.82,3.49-5.01,6.16-6.56,2.69-1.56,5.82-2.34,9.4-2.34,3.28,0,6.22.7,8.8,2.08,2.59,1.39,4.64,3.36,6.14,5.93,1.51,2.57,2.3,5.6,2.37,9.11v2.26h-25.02c0,2.94.7,5.12,2.11,6.56,1.42,1.44,3.32,2.16,5.69,2.16,1.96,0,3.56-.45,4.79-1.37,1.24-.93,1.98-2.14,2.21-3.63h10.11c-.23,2.48-1.01,4.77-2.34,6.87-1.32,2.11-3.19,3.77-5.61,4.98-2.42,1.21-5.39,1.82-8.9,1.82ZM933.49,277.65h14.35c0-.22-.07-.68-.18-1.37-.11-.7-.39-1.44-.84-2.21-.46-.77-1.17-1.45-2.13-2.03-.95-.58-2.26-.87-3.92-.87s-2.92.26-3.9.79c-.99.51-1.71,1.16-2.16,1.95-.46.78-.78,1.52-.95,2.24-.18.72-.26,1.22-.26,1.5Z"/>
      <path class="cls-2" d="M980.55,299.46c-.81,0-1.91-.11-3.29-.32-1.39-.2-2.84-.56-4.37-1.11-1.53-.56-2.99-1.34-4.37-2.34-1.39-1-2.5-2.28-3.34-3.84-.83-1.56-1.24-3.46-1.24-5.71h9.61c0,.05.03.39.08,1,.05.6.26,1.26.63,1.98.38.72,1.03,1.37,1.95,1.95.93.58,2.29.87,4.08.87,1.38,0,2.48-.18,3.29-.55.8-.38,1.38-.83,1.71-1.34.35-.53.5-1.01.45-1.47,0-1.09-.51-1.93-1.53-2.53-1-.61-2.31-1.15-3.92-1.61-1.62-.47-3.34-.96-5.16-1.47-1.81-.53-3.52-1.2-5.14-2.03-1.62-.84-2.94-1.96-3.95-3.37-1-1.42-1.47-3.28-1.42-5.58,0-3.48,1.34-6.04,4.03-7.72,2.69-1.67,6.1-2.5,10.24-2.5,2.37,0,4.56.28,6.58.82,2.01.55,3.8,1.37,5.35,2.48,1.56,1.09,2.77,2.5,3.63,4.24.88,1.72,1.34,3.74,1.4,6.06h-9.51c.05-1.16-.14-2.11-.58-2.84-.42-.75-.99-1.33-1.69-1.74-.68-.4-1.45-.7-2.29-.9-.83-.21-1.68-.32-2.55-.32-1.84,0-3.15.34-3.92,1-.78.65-1.16,1.38-1.16,2.19,0,1.21.51,2.15,1.55,2.82,1.03.67,2.36,1.23,3.98,1.69,1.61.46,3.35.95,5.21,1.47,1.88.51,3.62,1.17,5.24,1.98,1.61.81,2.94,1.9,3.98,3.27,1.03,1.36,1.55,3.12,1.55,5.29s-.63,4.13-1.87,5.64c-1.23,1.49-2.97,2.63-5.21,3.42-2.25.77-4.92,1.16-8.03,1.16Z"/>
    </g>
  </g>
  <path class="cls-2" d="M459.03,31.13h-34.11v68.23h-88.11V31.13h-34.11v176.28h34.11v-79.64h88.11v79.64h34.11V31.13ZM482.02,207.44V31.16h36.96v31.29c8.52-22.72,25.56-34.13,51.15-34.13,19.88,0,39.8,11.36,48.32,36.98,8.52-22.73,28.44-36.98,56.83-36.98,34.11,0,53.99,25.58,53.99,68.23v110.89h-34.11v-108.05c0-28.46-11.36-39.81-34.11-39.81s-36.96,17.05-36.96,48.34v99.53h-34.11v-108.05c0-28.46-11.36-39.81-34.11-39.81-19.88,0-36.96,17.05-36.96,48.34v99.53h-36.96.08ZM751.98,207.44V31.16h36.96v31.29c8.52-22.72,25.56-34.13,51.15-34.13,19.88,0,39.8,11.36,48.32,36.98,8.52-22.73,25.56-36.98,56.83-36.98s53.99,25.58,53.99,68.23v110.89h-36.96v-108.05c0-28.46-11.35-39.81-31.27-39.81-25.56,0-36.96,17.05-36.96,48.34v99.53h-36.96v-108.05c0-28.46-11.36-39.81-31.27-39.81-22.71,0-36.96,17.05-36.96,48.34v99.53h-36.96.1Z"/>
  <g>
    <path class="cls-2" d="M238.99,42.37v151.03c-4.74,6.89-10.22,13.23-16.26,18.99V42.33c0-14.41-11.64-26.05-26.04-26.05H48.06c7.62-6.33,15.98-11.81,25.03-16.28h123.61c23.32,0,42.3,18.99,42.3,42.33v.05Z"/>
    <path class="cls-2" d="M207.52,75.21v150.06c-5.19,3.61-10.63,6.9-16.27,9.94V75.25c0-14.41-11.64-26.05-25.87-26.05H19.42c3.44-5.76,7.46-11.25,11.92-16.28h133.98c23.16,0,42.15,18.99,42.15,42.33l.05-.04Z"/>
    <path class="cls-2" d="M176,108.04v133.62c-5.31,2.03-10.63,3.61-16.27,4.75V108.04c0-14.41-11.52-26.06-25.87-26.06H5.02c1.59-5.6,3.45-10.96,5.76-16.28h123.03c23.32,0,42.15,18.99,42.15,42.33h.04,0Z"/>
    <path class="cls-2" d="M144.6,140.88v108.01c-4.34.45-8.8.73-13.26.73h-3v-108.69c0-14.41-11.64-26.06-26.04-26.06H0c.16-5.48.57-10.96,1.46-16.28h100.88c23.32,0,42.3,18.99,42.3,42.33l-.05-.05Z"/>
    <path class="cls-2" d="M113.08,173.71v74.6c-5.48-.73-10.96-1.86-16.27-3.32v-71.28c0-14.41-11.63-26.05-25.87-26.05H3.43c-1.3-5.32-2.15-10.68-2.71-16.28h70.22c23.16,0,42.16,18.99,42.16,42.33h-.01Z"/>
    <path class="cls-2" d="M81.56,206.52v33.12c-5.6-2.15-10.95-4.91-16.1-7.91v-25.2c0-14.41-11.64-26.06-26.04-26.06H15.7c-2.76-5.31-5.19-10.67-7.34-16.27h31.07c23.32,0,42.15,18.99,42.15,42.33h-.01Z"/>
  </g>
</svg>
