<?xml version="1.0" encoding="UTF-8"?>
<svg id="Layer_1" data-name="Layer 1" xmlns="http://www.w3.org/2000/svg" viewBox="0 0 1080 834.62">
  <defs>
    <style>
      .cls-1 {
        fill: #c18432;
      }

      .cls-2 {
        fill: #bd8131;
      }

      .cls-3 {
        fill: #43063c;
      }

      .cls-4 {
        fill: #51323a;
      }

      .cls-5 {
        fill: #6874a5;
      }

      .cls-6 {
        fill: #340637;
      }

      .cls-7 {
        fill: #cf9134;
      }

      .cls-8 {
        fill: #061528;
      }

      .cls-9 {
        fill: #a24431;
      }

      .cls-10 {
        fill: #d4c6d0;
      }

      .cls-11 {
        fill: #8eb9e3;
      }

      .cls-12 {
        fill: #705153;
      }

      .cls-13 {
        fill: #7489bf;
      }

      .cls-14 {
        fill: #e0a239;
      }

      .cls-15 {
        fill: #8e7438;
      }

      .cls-16 {
        fill: #8b5722;
      }

      .cls-17 {
        fill: #c2583b;
      }

      .cls-18 {
        fill: #360030;
      }

      .cls-19 {
        fill: #490a41;
      }

      .cls-20 {
        fill: #f6b53c;
      }

      .cls-21 {
        fill: #a36b2a;
      }

      .cls-22 {
        fill: #8b3528;
      }

      .cls-23 {
        fill: #fff;
      }

      .cls-24 {
        fill: #4f4832;
      }

      .cls-25 {
        fill: #595135;
      }

      .cls-26 {
        fill: #2b002d;
      }

      .cls-27 {
        fill: #500f47;
      }

      .cls-28 {
        fill: #adb4b9;
      }

      .cls-29 {
        fill: #e46943;
      }

      .cls-30 {
        fill: #3d0136;
      }

      .cls-31 {
        fill: #c5838a;
      }

      .cls-32 {
        fill: #b097ab;
      }

      .cls-33 {
        fill: #b2772e;
      }

      .cls-34 {
        fill: #390d3b;
      }

      .cls-35 {
        fill: #7c6233;
      }

      .cls-36 {
        fill: #3f1141;
      }

      .cls-37 {
        fill: #7b99cf;
      }

      .cls-38 {
        fill: #6f80b3;
      }

      .cls-39 {
        fill: #eba1a1;
      }

      .cls-40 {
        fill: #102637;
      }

      .cls-41 {
        fill: #684a4d;
      }

      .cls-42 {
        fill: #081c2e;
      }
    </style>
  </defs>
  <g id="Human_Approach" data-name="Human Approach">
    <path class="cls-27" d="M910.59,367.97c0,203.22-164.75,367.97-367.97,367.97s-367.97-164.75-367.97-367.97S339.4,0,542.62,0s367.97,164.75,367.97,367.97"/>
    <path class="cls-36" d="M589.92,505.61h-31.82L731.85,52.33c16.55,9.94,32.25,21.15,46.97,33.49l-160.59,418.94h-9.3l-19.49-18.28h-16.72l17.2,19.13ZM529.71,735.71c-19.54-.67-38.69-2.87-57.33-6.47l72.5-189.14,1.92,3.96h.28s56.1,0,56.1,0l-73.46,191.64"/>
    <path class="cls-36" d="M690.5,493.28h-29.91l146.22-381.44c7.29,7.52,14.27,15.35,20.91,23.48l-137.22,357.96ZM567.9,735.07l69.71-181.84h29.91l-68.38,178.39c-10.27,1.58-20.69,2.74-31.23,3.45"/>
    <path class="cls-36" d="M295.83,405.2v-28.38c0-10.75-2.79-20.85-7.68-29.62L412.11,23.82c11.14-4.23,22.53-7.93,34.15-11.07l-150.44,392.45Z"/>
    <path class="cls-28" d="M687.68,29.69s0,0-.01,0t.01,0M688.16,29.9s-.03-.01-.05-.02l.05.02M688.69,30.13s-.1-.04-.14-.06c.05.02.09.04.14.06M689.27,30.38c-.08-.04-.17-.08-.26-.11.09.04.17.08.26.11M694.06,32.51c-1.52-.69-3.05-1.37-4.58-2.03,1.53.67,3.06,1.34,4.58,2.03"/>
    <path class="cls-36" d="M431.02,718.7c-41.91-13.32-80.57-33.95-114.48-60.39l40.28-105.07h27.61v-9.05h93.37l5.75-11.86,13.72-28.34,2.01-4.15h-71.22l19.84-22.07h-19.28l-22.48,21.09h-21.7v-7.87h-3.75L568.54.91c42.05,2.92,82.15,12.91,119.13,28.78.01,0,0,0,.01,0,.14.06.29.13.44.19.02.01.03.01.05.02.13.05.26.11.39.17.04.02.1.04.14.06.1.05.21.09.32.14.09.04.17.07.26.11.07.03.14.06.21.09,1.53.66,3.06,1.34,4.58,2.03l-263.04,686.19Z"/>
    <polygon class="cls-12" points="1041.47 614.08 1080 700.59 1052.46 733.24 1027.34 676.83 1016.86 700.33 1010.06 685.06 1018.83 659.82 1001.22 620.3 1041.47 614.08"/>
    <path class="cls-40" d="M978.63,187.3c0,22.63-18.34,40.97-40.97,40.97s-40.97-18.34-40.97-40.97,18.34-40.97,40.97-40.97,40.97,18.34,40.97,40.97"/>
    <polygon class="cls-12" points="641.5 544.06 546.8 544.06 528.18 505.61 589.92 505.61 572.72 486.49 589.44 486.49 608.93 504.76 652.19 504.76 641.5 544.06"/>
    <path class="cls-29" d="M914.59,356.86l-75.1,196.38h-212.44v-59.95h90.97l54.45-132.55c8.73-21.24,29.42-35.12,52.39-35.12h61.91c6.24,0,12.16,1.04,17.63,2.94,9.46,5.34,14.48,17.12,10.2,28.31"/>
    <path class="cls-39" d="M904.39,328.55c-5.47-1.9-11.39-2.95-17.63-2.95h6.33c4.17,0,8.02,1.08,11.31,2.95"/>
    <polygon class="cls-11" points="876.55 577.45 976.07 834.44 830.82 834.44 793.06 733.86 777.24 733.86 738.48 834.44 616.43 834.44 715.37 577.45 876.55 577.45"/>
    <path class="cls-29" d="M936.53,398.1l-64.53,167.61,16.61,42.87h-185.22l21.3-55.35h114.79l75.1-196.37c4.28-11.18-.73-22.96-10.2-28.31,27.31,9.51,43.35,40.44,32.14,69.55"/>
    <path class="cls-10" d="M917.61,335.39s-.01-.01-.02-.01c0,0,.02.01.02.01M917.77,335.5s0,0-.01-.01c0,0,0,0,.01.01M918.11,335.75s-.02-.02-.04-.02c.01,0,.02.02.04.02M918.28,335.87s-.04-.03-.06-.04c.02.01.04.03.06.04M918.43,335.98s-.04-.03-.06-.04c.02.01.04.03.06.04M918.58,336.1s-.04-.03-.06-.05c.02.02.04.03.06.05M918.96,336.38c-.1-.08-.2-.15-.31-.23.1.07.2.15.31.23M919.1,336.49s-.07-.05-.11-.08c.04.03.07.05.11.08M919.24,336.6s-.07-.06-.11-.09c.04.03.08.06.11.09M931.64,350.13c-3.31-5.16-7.5-9.75-12.39-13.52,4.89,3.77,9.08,8.36,12.39,13.52M931.73,350.27s-.05-.08-.07-.12c.02.04.05.08.07.12M931.83,350.41s-.05-.07-.07-.11c.02.04.05.08.07.11M932.05,350.78l-.22-.35.22.35M932.14,350.92s-.03-.05-.04-.07c.01.02.03.05.04.07M932.24,351.07s-.03-.05-.04-.07c.01.02.03.04.04.07M932.33,351.23s-.02-.03-.03-.05c.01.02.02.03.03.05M932.53,351.55h0s0,0,0,0M932.63,351.73s0-.01,0-.02c0,0,0,.01,0,.02M932.72,351.89h0s0,0,0,0M876.55,577.45h0l-4.55-11.74,7.42-19.27-7.42,19.27,4.55,11.75"/>
    <polyline class="cls-3" points="839.62 325.6 839.62 325.6 840.33 325.6 839.62 325.61"/>
    <path class="cls-17" d="M839.49,553.23h-83.72l83.85-227.63h.7s43.41,0,43.41,0h0s3.03,0,3.03,0c6.25,0,12.17,1.05,17.64,2.95,7.13,4.03,11.73,11.72,11.74,20.04,0,2.72-.49,5.51-1.55,8.26l-14.2,37.12-3.7,3.27,1.32,2.92-58.54,153.06Z"/>
    <path class="cls-37" d="M877.71,580.44l-1.16-2.99,1.16,2.99ZM888.6,608.58h-153.23,153.23,0"/>
    <path class="cls-17" d="M900.39,393.97l14.2-37.12c1.05-2.75,1.55-5.54,1.55-8.26,0-8.33-4.61-16.01-11.74-20.04,4.77,1.66,9.19,3.97,13.19,6.82,0,0,.01.01.02.01.05.03.09.07.14.1,0,0,.01,0,.02.01.1.07.2.15.31.22,0,0,.02.02.03.02.04.03.07.05.11.08.02.02.04.03.06.04.03.02.06.04.09.07.02.01.04.03.06.04.03.02.06.04.09.06.02.02.04.03.06.05.02.02.05.03.07.05.1.08.2.15.31.23.01,0,.02.02.03.03.04.03.07.05.11.08.01,0,.02.01.03.02.04.03.08.06.11.09,0,0,0,.01.01.01,4.89,3.77,9.08,8.36,12.39,13.52,0,0,0,.01,0,.02.03.04.05.08.07.12,0,.01.02.02.02.04.02.04.05.07.07.11,0,0,0,0,0,.01.08.12.15.23.22.35.02.03.03.05.05.08.02.02.03.05.05.07.02.03.03.06.05.08.01.02.03.05.04.07.02.03.04.07.06.1.01.02.02.03.03.05.06.11.13.21.19.32h0c.03.06.06.11.09.16,0,0,.01.01.01.02.03.05.06.1.09.15,0,0,0,0,0,0,1.78,3.03,3.28,6.23,4.44,9.56v-.02s-36.78,32.55-36.78,32.55ZM888.61,608.58h-153.23l20.39-55.35h83.72l58.54-153.05,20.38,45.01-38.98,101.25-7.42,19.27,4.55,11.74,1.16,3,10.89,28.13"/>
    <path class="cls-12" d="M932.71,198.58l-48.98,127.02h-54.12l19.56-50.78h-9.02c-10.03,0-16.9-10.11-13.21-19.43l6.44-16.29h-12.12c-5.3,0-8.28-6.09-5.03-10.28l43.17-55.47h56.02c13.02,0,21.99,13.07,17.3,25.23"/>
    <path class="cls-40" d="M915.41,173.35h-56c2.57,31.68,28.71,56.69,60.87,57.46l12.43-32.23c4.7-12.16-4.28-25.23-17.3-25.23"/>
    <path class="cls-12" d="M933.08,224.9c0,7.85-6.36,14.21-14.21,14.21s-14.21-6.36-14.21-14.21,6.36-14.21,14.21-14.21,14.21,6.36,14.21,14.21"/>
    <polygon class="cls-30" points="700.59 615.84 700.26 615.84 703.39 608.58 700.59 615.84"/>
    <polygon class="cls-13" points="732.74 615.95 700.59 615.84 703.39 608.58 888.61 608.58 735.38 608.58 732.74 615.95"/>
    <polygon class="cls-37" points="976.08 834.44 830.82 834.44 793.44 734.86 799.73 734.86 799.73 733.83 766.67 733.83 766.67 734.34 723.54 834.43 738.47 834.44 654.6 834.44 732.74 615.95 891.69 616.53 888.6 608.58 976.08 834.44"/>
    <polygon class="cls-5" points="891.69 616.54 732.74 615.95 735.38 608.58 888.61 608.58 891.69 616.54"/>
    <rect class="cls-40" x="766.67" y="733.83" width="33.06" height="1.03"/>
    <polyline class="cls-40" points="870.94 608.52 957.03 834.62 957.99 834.25 871.91 608.16"/>
    <path class="cls-40" d="M829.15,325.39s-13.52,29.23-13.54,50.56c0,5.34.85,10.21,3.02,14.02,2.17,3.82,5.7,6.54,10.89,7.5,1.1.2,2.18.3,3.26.3,7.4,0,14.28-4.6,20.45-11.36,18.49-20.3,30.98-60.61,30.99-60.64l-.98-.31s-.35,1.11-1.01,3.07c-2.32,6.84-8.52,23.96-17.26,39.33-8.73,15.4-20.04,28.93-32.19,28.88-1.01,0-2.04-.09-3.07-.28-4.93-.93-8.13-3.42-10.18-7-2.04-3.58-2.88-8.27-2.88-13.51,0-10.46,3.35-23.02,6.72-32.93,1.68-4.96,3.36-9.26,4.62-12.32,1.26-3.06,2.1-4.87,2.1-4.87l-.94-.43Z"/>
    <path class="cls-29" d="M916.77,236.58c0,2.86-2.31,5.17-5.17,5.17s-5.17-2.31-5.17-5.17,2.32-5.17,5.17-5.17,5.17,2.31,5.17,5.17"/>
    <path class="cls-40" d="M837.45,252.53c.05.03,3.72,2.24,9.02,2.25,2.64,0,5.69-.56,8.86-2.23l-.57-1.08c-2.98,1.57-5.82,2.09-8.29,2.09s-4.58-.52-6.07-1.05c-.74-.26-1.33-.52-1.73-.71l-.45-.23-.14-.08-.63,1.04Z"/>
    <path class="cls-40" d="M857.72,211.39c0,1.48-1.2,2.68-2.68,2.68s-2.68-1.2-2.68-2.68,1.2-2.68,2.68-2.68,2.68,1.2,2.68,2.68"/>
    <polygon class="cls-38" points="738.47 834.44 738.47 834.44 723.54 834.43 766.67 734.34 766.67 734.86 776.86 734.86 738.47 834.44"/>
    <polygon class="cls-42" points="776.86 734.86 776.86 734.86 766.67 734.86 766.67 734.34 777.25 733.86 776.86 734.86"/>
    <polygon class="cls-29" points="937.16 361.43 1064.55 643.67 1008.27 643.67 896.7 397.25 937.16 361.43"/>
    <polygon class="cls-17" points="1064.55 643.67 1024.19 643.67 923.49 428.47 918.4 445.18 898.02 400.17 896.7 397.25 937.16 361.43 1064.55 643.67"/>
    <polygon class="cls-32" points="1011.63 643.67 1008.27 643.67 920.98 450.88 918.4 445.19 1008.27 643.67 1011.63 643.67"/>
    <polygon class="cls-22" points="1024.19 643.67 1008.27 643.67 918.4 445.19 918.4 445.18 923.49 428.47 1024.19 643.67"/>
    <path class="cls-32" d="M1018.82,659.82l-7.19-16.14,7.19,16.14Z"/>
    <polygon class="cls-4" points="1052.46 733.24 1027.34 676.83 1016.86 700.33 1010.06 685.06 1018.82 659.82 1011.63 643.67 1024.19 643.67 1059.54 724.84 1052.46 733.24"/>
    <rect class="cls-18" x="603.17" y="544.06" width="23.87" height="0"/>
    <rect class="cls-26" x="547.07" y="544.06" width="56.1" height="0"/>
    <polygon class="cls-4" points="627.05 544.06 603.17 544.06 547.07 544.06 542.05 533.68 627.05 533.68 627.05 544.06"/>
    <polygon class="cls-9" points="724.71 553.23 667.51 553.23 637.6 553.23 627.05 553.23 627.05 544.06 627.05 544.06 627.05 533.68 719.65 533.68 777.05 411.32 779.33 411.32 732.23 533.68 724.71 553.23"/>
    <path class="cls-40" d="M924.31,229.98c1.56-1.45,2.35-3.42,2.34-5.39,0-1.79-.65-3.6-1.97-5.02-1.45-1.56-3.42-2.34-5.39-2.34-1.79,0-3.6.65-5.01,1.98l.57.61c1.26-1.17,2.85-1.75,4.44-1.75,1.75,0,3.49.7,4.78,2.08,1.17,1.26,1.75,2.85,1.75,4.44,0,1.75-.7,3.49-2.08,4.77l.57.62Z"/>
    <polygon class="cls-34" points="483.54 532.32 483.54 532.32 497.27 503.99 483.54 532.32"/>
    <polygon class="cls-34" points="477.8 544.18 477.8 544.18 483.54 532.32 477.8 544.18"/>
    <polygon class="cls-39" points="368.56 544.18 477.8 544.18 499.28 499.84 428.05 499.84 447.89 477.77 428.61 477.77 406.13 498.86 356.23 498.86 368.56 544.18"/>
    <rect class="cls-23" x="378.18" y="498.86" width="14.79" height="45.33"/>
    <polygon class="cls-39" points="219.77 170.11 146.27 363.99 215.16 363.99 288.66 170.11 219.77 170.11"/>
    <path class="cls-20" d="M104.88,355.02l-38.4,100.18c-18.12,47.27,16.78,98.03,67.41,98.03l90.96-237.3h-63.11c-25.22,0-47.83,15.55-56.86,39.1"/>
    <path class="cls-20" d="M198.75,315.93L61.63,673.66h234.2v-296.84c0-33.63-27.26-60.89-60.89-60.89h-36.19Z"/>
    <path class="cls-39" d="M221.94,210.21h63.08v58.82c0,10.53-8.54,19.08-19.08,19.08h-44.01v-77.9Z"/>
    <path class="cls-39" d="M270.78,170.11h17.88l10.6,53.13c0,7.78-6.31,14.09-14.09,14.09h-14.39v-67.22Z"/>
    <polygon class="cls-40" points="295.83 673.66 295.83 834.44 178.73 834.44 168.46 765.12 161.2 765.12 134.63 834.44 0 834.44 61.63 673.66 295.83 673.66"/>
    <path class="cls-40" d="M288.66,170.11h-58.59v52.38h-29.68v-68.91s-1.05-19.62,21.55-19.62c21.13,0,21.38,17.05,21.38,17.05,0,0,3.44-13.31,21.68-13.31s21.48,19.27,21.48,19.27l2.18,13.14Z"/>
    <path class="cls-39" d="M218.1,216.21c0,9.95-8.07,18.02-18.02,18.02s-18.02-8.07-18.02-18.02,8.07-18.02,18.02-18.02,18.02,8.07,18.02,18.02"/>
    <path class="cls-2" d="M118.42,551.62c-3.02-.6-6.13-1.44-8.98-2.58.02,0,.05.02.07.03,2.96,1.13,6.01,1.95,8.9,2.55M261.46,568.02v-14.79h34.37v14.77l-34.37.02M102.09,568.11l1.5-3.91-1.5,3.91"/>
    <polygon class="cls-42" points="261.46 834.44 178.73 834.44 168.46 765.11 161.2 765.11 134.63 834.44 0 834.44 61.63 673.66 61.63 673.66 61.63 673.66 55.33 690.09 0 834.43 30.82 834.43 85.61 690.09 261.46 690.09 261.46 834.44"/>
    <path class="cls-7" d="M120.91,552.09c-.81-.14-1.64-.3-2.49-.47.43.08.85.16,1.27.24.41.08.81.16,1.22.23M133.56,553.23c-.31,0-.85,0-1.56-.02.62.01,1.26.02,1.89.02h-.33M103.58,564.2l5.82-15.18s0,0,0,0l-5.82,15.18M261.46,673.66H61.63l40.46-105.55,159.37-.09v105.64"/>
    <path class="cls-21" d="M102.09,568.11l1.5-3.91,5.82-15.18s.02,0,.04.01c2.84,1.14,5.96,1.98,8.98,2.58.85.17,1.68.33,2.49.47,3.59.64,7.29,1.02,11.08,1.12.71.02,1.25.03,1.56.03.21,0,.33,0,.33,0h127.58v14.79l-159.37.09Z"/>
    <polygon class="cls-7" points="148.33 447.48 151.15 403.45 145.83 403.45 172.29 315.93 198.75 315.93 148.33 447.48"/>
    <path class="cls-7" d="M261.46,490.98h-115.92l2.79-43.5,50.43-131.55h34.86c1.42,0,8.78.1,14.96,1.53,6.13,1.42,12.88,4.53,12.88,4.53v76.06h-23.64v46.39h23.64v46.53Z"/>
    <path class="cls-7" d="M133.31,486.66c-5.62-4.57-8.56-12.18-6.6-19.87-1.5,9.74,2.3,15.63,6.87,19.16l-.27.71Z"/>
    <path class="cls-7" d="M261.46,407.88h-22.61v-8.8h22.61v8.8ZM261.46,443.42h-22.61v-34.51h22.61v34.51ZM145.54,490.98c-4.71,0-8.93-1.64-12.23-4.32l.27-.71c5.43,4.19,11.96,5.03,11.96,5.03"/>
    <rect class="cls-42" x="261.46" y="673.66" width="34.37" height="16.43"/>
    <polygon class="cls-8" points="30.82 834.43 0 834.43 55.33 690.09 61.63 673.66 261.46 673.66 261.46 690.09 85.61 690.09 30.82 834.43"/>
    <rect class="cls-20" x="133.88" y="490.98" width="250.54" height="62.25"/>
    <polygon class="cls-6" points="384.43 553.23 356.82 553.23 384.43 553.23 384.43 544.18 384.43 553.23"/>
    <path class="cls-10" d="M63.76,463.81s.01-.05.02-.07c0,.02-.01.05-.02.07M63.69,464.09c.01-.05.03-.11.04-.16-.01.05-.02.1-.04.16M109.4,549.02c-33.79-12.11-54.61-48.52-45.72-84.88-8.88,36.36,11.94,72.77,45.72,84.88"/>
    <path class="cls-7" d="M109.4,549.02c-33.79-12.11-54.61-48.52-45.72-84.88,0-.02,0-.03.01-.05.01-.05.02-.1.04-.16.01-.04.02-.08.03-.12,0-.02.01-.04.02-.07.71-2.85,1.61-5.71,2.7-8.55l38.4-100.17c9.03-23.55,31.64-39.1,56.86-39.1h10.55l-26.47,87.53h-.28l-18.78,63.01c-3.07,9.5-1.07,19.11,4.19,26.34l-21.55,56.22Z"/>
    <path class="cls-7" d="M133.88,553.23h0s-6.65,0-14.19-1.37c-3.5-.69-6.9-1.63-10.18-2.8l-.11-.04h0s21.55-56.22,21.55-56.22c.89,1.22,1.87,2.37,2.93,3.45v56.98Z"/>
    <path class="cls-21" d="M109.52,549.06s-.05-.02-.07-.03c-.01,0-.02-.01-.04-.01h0s.07.03.11.04"/>
    <path class="cls-33" d="M261.46,553.23h-127.58c-.63,0-1.26,0-1.89-.02-2.26-.07-6.35-.31-11.08-1.12-.41-.07-.81-.15-1.22-.23,7.54,1.37,14.19,1.37,14.19,1.37h127.58Z"/>
    <path class="cls-16" d="M132,553.21c-3.79-.09-7.49-.48-11.08-1.12,4.73.81,8.82,1.05,11.08,1.12M261.46,553.23h-127.58,127.58"/>
    <polygon class="cls-33" points="109.41 549.02 109.4 549.02 109.4 549.02 109.41 549.02"/>
    <path class="cls-16" d="M109.44,549.04s-.02-.01-.03-.01c.01,0,.02.01.03.01"/>
    <path class="cls-7" d="M384.43,553.23h-250.54v-56.98c5.26,5.31,12.56,8.68,20.87,8.68h.19l229.49-1.96v50.25Z"/>
    <path class="cls-40" d="M204.52,205.34c-1.48-.67-3.03-.99-4.56-.99-4.21,0-8.23,2.42-10.08,6.5-.67,1.48-.99,3.03-.99,4.56,0,4.21,2.42,8.23,6.5,10.08l.52-1.15c-3.62-1.64-5.76-5.2-5.76-8.93,0-1.35.28-2.72.88-4.04,1.64-3.62,5.2-5.76,8.93-5.76,1.35,0,2.72.28,4.03.88l.52-1.15Z"/>
    <polyline class="cls-23" points="98.62 748.88 67.78 834.26 68.75 834.61 99.59 749.23"/>
    <polyline class="cls-23" points="243.61 834.43 243.61 746.59 242.58 746.59 242.58 834.43"/>
    <polygon class="cls-15" points="279.6 444.45 261.46 444.45 261.46 443.42 278.57 443.42 278.57 408.91 279.09 408.91 279.09 407.88 278.57 407.88 278.57 399.08 261.46 399.08 261.46 398.05 279.6 398.05 279.6 444.45"/>
    <polygon class="cls-35" points="261.46 444.45 237.82 444.45 237.82 398.57 237.82 398.05 261.46 398.05 261.46 399.08 238.85 399.08 238.85 407.88 238.34 407.88 238.34 408.91 238.85 408.91 238.85 443.42 261.46 443.42 261.46 444.45"/>
    <rect class="cls-15" x="261.46" y="407.88" width="17.11" height="1.03"/>
    <rect class="cls-35" x="238.85" y="407.88" width="22.61" height="1.03"/>
    <rect class="cls-25" x="278.57" y="407.88" width=".52" height="1.03"/>
    <rect class="cls-24" x="238.34" y="407.88" width=".51" height="1.03"/>
    <path class="cls-14" d="M126.71,466.79c.02-.11.03-.22.05-.34l19.05-63h.02l-18.89,62.49c-.09.29-.16.57-.24.85"/>
    <path class="cls-1" d="M133.58,485.95c-4.57-3.52-8.37-9.41-6.87-19.16.07-.29.15-.57.24-.85l18.89-62.49h5.32l-2.82,44.03-14.75,38.47Z"/>
    <path class="cls-1" d="M145.54,490.98h0s-6.52-.85-11.96-5.03l14.75-38.47-2.79,43.5Z"/>
    <polygon class="cls-1" points="126.76 466.46 145.54 403.45 145.82 403.45 126.76 466.46"/>
    <polyline class="cls-23" points="154 765.59 176.47 765.59 176.47 764.56 154 764.56"/>
    <path class="cls-40" d="M247.59,247.51c.06.06,5.89,6.16,16.55,6.16,3.84,0,8.3-.8,13.32-2.95l-.48-1.12c-4.87,2.09-9.16,2.85-12.84,2.85-5.09,0-9.01-1.46-11.67-2.91-1.32-.73-2.33-1.46-3.01-2-.34-.27-.59-.5-.75-.65l-.24-.23-.88.84Z"/>
    <path class="cls-40" d="M261.55,203.48c0,1.48-1.2,2.68-2.68,2.68s-2.68-1.2-2.68-2.68,1.2-2.68,2.68-2.68,2.68,1.2,2.68,2.68"/>
    <polygon class="cls-31" points="236.9 306.64 207.97 288.11 243.92 288.11 236.9 306.64"/>
    <path class="cls-19" d="M838.26,303.17l10.92-28.35-10.92,28.35Z"/>
    <polygon class="cls-41" points="838.26 303.17 849.17 274.83 872.06 274.83 838.26 303.17"/>
  </g>
</svg>
