<?xml version="1.0" encoding="UTF-8"?>
<svg id="Layer_1" data-name="Layer 1" xmlns="http://www.w3.org/2000/svg" viewBox="0 0 250 232.59">
  <defs>
    <style>
      .cls-1 {
        fill: #e1633a;
      }

      .cls-2 {
        fill: #551344;
      }
    </style>
  </defs>
  <path class="cls-1" d="M186.12,46.53c-33.75-33.75-88.47-33.75-122.21,0-33.75,33.74-33.75,88.46,0,122.21,33.74,33.74,88.46,33.74,122.21,0,33.75-33.75,33.75-88.47,0-122.21ZM126.08,156.45c-26.82,0-48.55-21.74-48.55-48.55s21.73-48.55,48.55-48.55,48.55,21.73,48.55,48.55-21.74,48.55-48.55,48.55Z"/>
  <path class="cls-1" d="M125.03,232.59c-24.63,0-49.21-7.23-70.3-21.61-3.35-2.28-4.21-6.85-1.93-10.2,2.28-3.35,6.85-4.21,10.2-1.93,35.45,24.16,82.11,25.46,118.87,3.31,3.47-2.09,7.98-.97,10.08,2.5,2.09,3.47.97,7.98-2.5,10.07-19.79,11.93-42.12,17.85-64.41,17.85Z"/>
  <path class="cls-2" d="M232.07,163.78c-1.02,0-2.05-.21-3.04-.66-3.69-1.68-5.32-6.03-3.63-9.72,18.98-41.65,9.98-91.38-22.39-123.75-5.98-5.98-12.61-11.26-19.72-15.69-3.44-2.14-4.49-6.67-2.35-10.11,2.14-3.44,6.67-4.49,10.11-2.35,8.05,5.02,15.57,11,22.33,17.76,18.36,18.36,30.39,41.55,34.78,67.05,4.29,24.93,1.04,50.23-9.41,73.16-1.23,2.7-3.9,4.3-6.68,4.3Z"/>
  <path class="cls-1" d="M19.61,167.25c-2.7,0-5.3-1.5-6.58-4.08C-10.83,115.08-1.33,57.25,36.65,19.27c6.96-6.96,14.7-13.07,23-18.18,3.45-2.12,7.97-1.04,10.1,2.41,2.12,3.45,1.04,7.97-2.41,10.1-7.33,4.51-14.17,9.91-20.31,16.05C13.51,63.17,5.13,114.21,26.18,156.65c1.8,3.63.32,8.03-3.31,9.84-1.05.52-2.16.77-3.26.77Z"/>
</svg>
