<?xml version="1.0" encoding="UTF-8"?>
<svg id="Layer_1" data-name="Layer 1" xmlns="http://www.w3.org/2000/svg" viewBox="0 0 249.01 249">
  <defs>
    <style>
      .cls-1 {
        fill: #00c564;
      }

      .cls-2 {
        fill: #551344;
      }
    </style>
  </defs>
  <path class="cls-1" d="M175.42,61.66c-31.42-31.4-82.34-31.4-113.75,0-31.42,31.42-31.42,82.34,0,113.76,31.4,31.4,82.33,31.4,113.75,0,31.4-31.42,31.4-82.34,0-113.76ZM118.54,165.71c-26.05,0-47.16-21.13-47.16-47.17s21.12-47.16,47.16-47.16,47.17,21.12,47.17,47.16-21.13,47.17-47.17,47.17Z"/>
  <path class="cls-2" d="M229.89,116.43c-3.53,0-6.52-2.71-6.8-6.29-1.98-24.8-12.77-48.15-30.38-65.77C157.2,8.87,101.31,3.5,59.81,31.61c-3.13,2.11-7.37,1.3-9.49-1.83-2.12-3.12-1.3-7.37,1.83-9.49,46.91-31.78,110.09-25.72,150.21,14.41,19.91,19.91,32.11,46.31,34.34,74.34.3,3.76-2.5,7.05-6.27,7.35-.19.02-.37.02-.55.02Z"/>
  <path class="cls-1" d="M105.14,236.28c-.27,0-.55-.02-.82-.05-26.57-3.19-50.64-14.91-69.6-33.87C11.4,179.04-1.22,146.76.09,113.8c.15-3.77,3.34-6.7,7.1-6.55,3.77.15,6.7,3.33,6.55,7.1-1.16,29.17,10.01,57.73,30.63,78.36,16.78,16.78,38.07,27.14,61.57,29.97,3.75.45,6.42,3.85,5.97,7.6-.42,3.47-3.37,6.02-6.77,6.02Z"/>
  <path class="cls-1" d="M235.34,249c-3.5,0-6.99-1.33-9.66-4l-63.3-63.3c-5.34-5.33-5.34-13.99,0-19.32,5.34-5.34,13.99-5.34,19.32,0l63.3,63.3c5.34,5.33,5.34,13.99,0,19.32-2.67,2.67-6.16,4-9.66,4Z"/>
</svg>
