<?xml version="1.0" encoding="UTF-8"?>
<svg id="Layer_1" data-name="Layer 1" xmlns="http://www.w3.org/2000/svg" viewBox="0 0 250.06 197.68">
  <defs>
    <style>
      .cls-1 {
        fill: #f5b62f;
      }

      .cls-2 {
        fill: #551344;
      }
    </style>
  </defs>
  <path class="cls-1" d="M200.51,56.25h-41.69c-5.93,0-11.18-3.81-13-9.44l-12.88-39.64c-2.03-6.23-10.83-6.23-12.85,0l-12.88,39.64c-1.83,5.63-7.08,9.44-13.01,9.44h-41.68c-6.54,0-9.26,8.37-3.97,12.21l33.72,24.51c4.8,3.48,6.8,9.65,4.97,15.29l-12.88,39.64c-2.03,6.22,5.1,11.4,10.39,7.55l33.73-24.5c4.79-3.49,11.28-3.49,16.07,0l33.72,24.5c5.29,3.85,12.42-1.33,10.39-7.55l-12.88-39.64c-1.82-5.63.18-11.81,4.97-15.29l33.73-24.51c5.29-3.84,2.57-12.21-3.97-12.21ZM125.82,105.49c-10.19,0-18.45-8.26-18.45-18.45s8.26-18.45,18.45-18.45,18.46,8.25,18.46,18.45-8.26,18.45-18.46,18.45Z"/>
  <path class="cls-2" d="M220.42,90.32l5.15,15.86c.72,2.22,2.8,3.73,5.13,3.73h16.68c2.58,0,3.66,3.31,1.57,4.82l-13.5,9.8c-1.89,1.37-2.68,3.81-1.96,6.04l5.15,15.86c.8,2.46-2.01,4.5-4.1,2.98l-13.5-9.8c-1.89-1.37-4.45-1.37-6.35,0l-13.5,9.8c-2.09,1.52-4.9-.52-4.1-2.98l5.15-15.86c.72-2.22-.07-4.66-1.96-6.04l-13.5-9.8c-2.09-1.52-1.02-4.82,1.57-4.82h16.68c2.34,0,4.41-1.51,5.13-3.73l5.15-15.86c.8-2.46,4.27-2.46,5.07,0Z"/>
  <path class="cls-2" d="M34.71,90.32l5.15,15.86c.72,2.22,2.8,3.73,5.13,3.73h16.68c2.58,0,3.66,3.31,1.57,4.82l-13.5,9.8c-1.89,1.37-2.68,3.81-1.96,6.04l5.15,15.86c.8,2.46-2.01,4.5-4.1,2.98l-13.5-9.8c-1.89-1.37-4.45-1.37-6.35,0l-13.5,9.8c-2.09,1.52-4.9-.52-4.1-2.98l5.15-15.86c.72-2.22-.07-4.66-1.96-6.04l-13.5-9.8c-2.09-1.52-1.02-4.82,1.57-4.82h16.68c2.34,0,4.41-1.51,5.13-3.73l5.15-15.86c.8-2.46,4.27-2.46,5.07,0Z"/>
  <path class="cls-1" d="M85.05,40.68c-1.6,0-3.21-.61-4.43-1.84l-23.69-23.69c-2.45-2.45-2.45-6.42,0-8.87s6.42-2.45,8.87,0l23.69,23.69c2.45,2.45,2.45,6.42,0,8.87-1.22,1.22-2.83,1.84-4.43,1.84Z"/>
  <path class="cls-1" d="M129.47,197.68c-3.46,0-6.27-2.81-6.27-6.27v-35.6c0-3.46,2.81-6.27,6.27-6.27s6.27,2.81,6.27,6.27v35.6c0,3.46-2.81,6.27-6.27,6.27Z"/>
  <path class="cls-1" d="M167.98,37.71c-1.6,0-3.21-.61-4.43-1.84-2.45-2.45-2.45-6.42,0-8.87L188.72,1.84c2.45-2.45,6.42-2.45,8.87,0,2.45,2.45,2.45,6.42,0,8.87l-25.18,25.18c-1.22,1.22-2.83,1.84-4.43,1.84Z"/>
</svg>
