<?xml version="1.0" encoding="UTF-8"?>
<svg id="Layer_1" data-name="Layer 1" xmlns="http://www.w3.org/2000/svg" viewBox="0 0 250 184.07">
  <defs>
    <style>
      .cls-1 {
        fill: #9ac3fa;
      }

      .cls-2 {
        fill: #551344;
      }

      .cls-3 {
        fill: #eca8a8;
      }
    </style>
  </defs>
  <path class="cls-1" d="M215.66,29.26H40.9c-5.18,0-9.36,4.18-9.36,9.36v120.28c0,7.93,9.25,12.27,15.35,7.19l13-10.83c1.68-1.39,3.8-2.16,5.99-2.16h149.77c5.18,0,9.36-4.2,9.36-9.36V38.62c0-5.18-4.18-9.36-9.36-9.36ZM125,130.81c-21.31,0-38.6-17.28-38.6-38.6s17.28-38.6,38.6-38.6,38.6,17.27,38.6,38.6-17.28,38.6-38.6,38.6Z"/>
  <path class="cls-3" d="M6.94,82.75c-3.83,0-6.94-3.11-6.94-6.94V10.41C0,4.67,4.67,0,10.41,0h91.64c3.83,0,6.94,3.11,6.94,6.94s-3.11,6.94-6.94,6.94H13.88v61.93c0,3.83-3.11,6.94-6.94,6.94Z"/>
  <path class="cls-2" d="M239.59,184.07h-75.24c-3.83,0-6.94-3.11-6.94-6.94s3.11-6.94,6.94-6.94h71.76v-45.19c0-3.83,3.11-6.94,6.94-6.94s6.94,3.11,6.94,6.94v48.66c0,5.74-4.67,10.41-10.41,10.41Z"/>
</svg>
