<?xml version="1.0" encoding="UTF-8"?>
<svg id="Layer_1" data-name="Layer 1" xmlns="http://www.w3.org/2000/svg" viewBox="0 0 250 231.47">
  <defs>
    <style>
      .cls-1 {
        fill: #00c564;
      }

      .cls-2 {
        fill: #551344;
      }
    </style>
  </defs>
  <path class="cls-2" d="M204.31,30.14H22.91C10.26,30.14,0,39.31,0,50.63v83.61c0,11.32,10.26,20.49,22.91,20.49h181.4c12.65,0,22.91-9.17,22.91-20.49V50.63c0-11.32-10.26-20.49-22.91-20.49ZM114.13,130.64c-21.35,0-38.67-17.31-38.67-38.67s17.31-38.67,38.67-38.67,38.67,17.31,38.67,38.67-17.31,38.67-38.67,38.67Z"/>
  <path class="cls-2" d="M113.91,196.6c-4.02,0-7.29-3.26-7.29-7.29v-34.43c0-4.02,3.26-7.29,7.29-7.29s7.29,3.26,7.29,7.29v34.43c0,4.02-3.26,7.29-7.29,7.29Z"/>
  <path class="cls-2" d="M183.61,231.47c-4.02,0-7.29-3.26-7.29-7.29,0-11.17-9.09-20.26-20.26-20.26h-86.07c-11.17,0-20.25,9.09-20.25,20.26,0,4.02-3.26,7.29-7.29,7.29s-7.29-3.26-7.29-7.29c0-19.21,15.62-34.83,34.83-34.83h86.07c19.21,0,34.83,15.62,34.83,34.83,0,4.02-3.26,7.29-7.29,7.29Z"/>
  <path class="cls-2" d="M117.05,14.57H10.33c-4.02,0-7.29-3.26-7.29-7.29S6.3,0,10.33,0h106.73c4.02,0,7.29,3.26,7.29,7.29s-3.26,7.29-7.29,7.29Z"/>
  <path class="cls-1" d="M242.71,179.83h-79.18c-4.02,0-7.29-3.26-7.29-7.29s3.26-7.29,7.29-7.29h79.18c4.02,0,7.29,3.26,7.29,7.29s-3.26,7.29-7.29,7.29Z"/>
</svg>
