<?xml version="1.0" encoding="UTF-8"?>
<svg id="Layer_1" data-name="Layer 1" xmlns="http://www.w3.org/2000/svg" viewBox="0 0 250 238.66">
  <defs>
    <style>
      .cls-1 {
        fill: #e1633a;
      }

      .cls-2 {
        fill: #00c564;
      }
    </style>
  </defs>
  <path class="cls-1" d="M136.57,136.57h102.09c0,56.01-46.09,102.09-102.09,102.09s-102.09-46.09-102.09-102.09,46.09-102.09,102.09-102.09c.04,0,.08,0,.12,0l-.12,102.09Z"/>
  <path class="cls-2" d="M223.5,49.78c-16.97-17.01-40.01-26.59-64.03-26.66l-.21,90.75h90.74c0-24.02-9.53-47.09-26.5-64.1ZM196.2,100.5c-13.02,0-23.56-10.55-23.56-23.56s10.54-23.56,23.56-23.56,23.56,10.54,23.56,23.56-10.55,23.56-23.56,23.56Z"/>
  <path class="cls-1" d="M8,118.1c-4.42,0-8-3.58-8-8,0-29.23,11.5-56.82,32.39-77.71S80.87,0,110.1,0c4.42,0,8,3.58,8,8s-3.58,8-8,8c-24.95,0-48.53,9.84-66.39,27.7-17.86,17.86-27.7,41.44-27.7,66.39,0,4.42-3.58,8-8,8Z"/>
</svg>
